M48
;DRILL file {KiCad 4.0.5+dfsg1-4} date Tue Aug 22 17:04:40 2017
;FORMAT={3:3/ absolute / metric / keep zeros}
FMAT,2
METRIC,TZ
T1C0.400
T2C0.900
T3C1.000
T4C1.100
T5C1.500
T6C1.800
T7C3.000
T8C3.500
%
G90
G05
M71
T1
X090170Y-051816
X090170Y-073914
X090170Y-096012
X090170Y-118110
X096484Y-061294
X096484Y-083392
X096484Y-105490
X096484Y-127588
X099822Y-057912
X099822Y-080010
X099822Y-102108
X099822Y-124206
X100330Y-153162
X100330Y-158242
X101600Y-157226
X101854Y-057658
X101854Y-079756
X101854Y-101854
X101854Y-123952
X106172Y-059182
X106172Y-060706
X106172Y-062096
X106172Y-081280
X106172Y-082804
X106172Y-084194
X106172Y-103378
X106172Y-104902
X106172Y-106292
X106172Y-125476
X106172Y-127000
X106172Y-128390
X107188Y-141986
X107442Y-047498
X107442Y-069596
X107442Y-091694
X107442Y-113792
X107696Y-052578
X107696Y-074676
X107696Y-096774
X107696Y-118872
X108204Y-151384
X110236Y-151384
X110490Y-056134
X110490Y-078232
X110490Y-100330
X110490Y-122428
X110744Y-061976
X110744Y-084074
X110744Y-106172
X110744Y-128270
X111252Y-051816
X111252Y-073914
X111252Y-096012
X111252Y-118110
X111760Y-050038
X111760Y-072136
X111760Y-094234
X111760Y-116332
X112268Y-059690
X112268Y-081788
X112268Y-103886
X112268Y-125984
X112522Y-062592
X112522Y-084690
X112522Y-106788
X112522Y-128886
X112678Y-060776
X112678Y-082874
X112678Y-104972
X112678Y-127070
X113284Y-154178
X113538Y-055626
X113538Y-077724
X113538Y-099822
X113538Y-121920
X114516Y-048006
X114516Y-070104
X114516Y-092202
X114516Y-114300
X115824Y-048006
X115824Y-070104
X115824Y-092202
X115824Y-114300
X116293Y-051840
X116293Y-073938
X116293Y-096036
X116293Y-118134
X116586Y-055372
X116840Y-050038
X116840Y-072136
X116840Y-094234
X116840Y-116332
X117094Y-077216
X117602Y-099314
X117602Y-121412
X118491Y-141605
X119667Y-057373
X119667Y-079471
X119667Y-101569
X119667Y-123667
X119972Y-060708
X119972Y-082806
X119972Y-104904
X119972Y-127002
X120142Y-061976
X120142Y-084074
X120142Y-106172
X120142Y-128270
X120904Y-055372
X120904Y-077470
X120904Y-099568
X120904Y-121666
X121031Y-148717
X121169Y-052093
X121169Y-074191
X121169Y-096289
X121169Y-118387
X122238Y-148400
X122238Y-151829
X123190Y-141605
X123190Y-150622
X123698Y-048514
X123698Y-050546
X123698Y-070612
X123698Y-072644
X123698Y-092710
X123698Y-094742
X123698Y-114808
X123698Y-116840
X126492Y-053848
X126492Y-055626
X126492Y-075946
X126492Y-077724
X126492Y-098044
X126492Y-099822
X126492Y-120142
X126492Y-121920
X128016Y-141605
X128270Y-047752
X128270Y-069850
X128270Y-091948
X128270Y-114046
X129286Y-156972
X129286Y-158877
X129898Y-058359
X129898Y-080457
X129898Y-102555
X129898Y-124653
X130048Y-052578
X130048Y-074676
X130048Y-096774
X130048Y-118872
X130556Y-059182
X130556Y-061962
X130556Y-063246
X130556Y-081280
X130556Y-084060
X130556Y-085344
X130556Y-103378
X130556Y-106158
X130556Y-107442
X130556Y-125476
X130556Y-128256
X130556Y-129540
X131064Y-057150
X131064Y-079248
X131064Y-101346
X131064Y-123444
X131318Y-055880
X131318Y-077978
X131318Y-100076
X131318Y-122174
X131445Y-138557
X131826Y-057912
X131826Y-080010
X131826Y-102108
X131826Y-124206
X132677Y-138087
X133477Y-137287
X134112Y-052578
X134112Y-074676
X134112Y-096774
X134112Y-118872
X134910Y-136997
X135128Y-143510
X139954Y-074676
X139954Y-096520
X139954Y-118872
X140145Y-170434
X140208Y-132842
X140462Y-052070
X140970Y-174752
X141351Y-137033
X141986Y-054991
X141986Y-058928
X141986Y-062992
X141986Y-077089
X141986Y-081026
X141986Y-085090
X141986Y-099187
X141986Y-103124
X141986Y-107188
X141986Y-121285
X141986Y-125222
X141986Y-129286
X141986Y-171450
X143002Y-143510
X143510Y-084074
X143510Y-106426
X143764Y-112014
X143764Y-160020
X144018Y-067818
X144367Y-090170
X144526Y-062738
X144526Y-152400
X144780Y-128524
X144875Y-153670
X145034Y-130556
X145288Y-131826
X145288Y-150368
X145288Y-172466
X146050Y-128524
X146304Y-166370
X146304Y-173736
X146812Y-051562
X146812Y-073660
X146812Y-114808
X146812Y-117856
X146812Y-135636
X147066Y-103124
X147066Y-144526
X147066Y-175768
X147320Y-081026
X147320Y-092710
X147320Y-095504
X147320Y-121412
X147320Y-125222
X147320Y-126492
X147320Y-058928
X147570Y-131060
X147574Y-128524
X148082Y-054102
X148336Y-071628
X148336Y-105156
X148590Y-106172
X148590Y-132080
X148844Y-130810
X148844Y-163322
X149352Y-047244
X149352Y-084836
X149352Y-133604
X149352Y-082042
X149606Y-058928
X149606Y-152400
X149860Y-060198
X149860Y-099314
X150114Y-173736
X150876Y-156210
X151130Y-077724
X151130Y-142621
X151130Y-143891
X151638Y-055118
X151892Y-129540
X151892Y-174752
X152019Y-141732
X152400Y-058928
X152400Y-080772
X152400Y-124968
X152400Y-102870
X152654Y-131064
X152908Y-157226
X152908Y-148590
X153473Y-130048
X154178Y-058928
X154178Y-080772
X154178Y-102870
X154178Y-124968
X154178Y-148590
X154178Y-157734
X154432Y-128016
X154813Y-142748
X154940Y-052578
X155194Y-130048
X155448Y-174752
X155702Y-135128
X155956Y-130810
X156051Y-056642
X156083Y-143129
X156464Y-052832
X156464Y-131826
X156718Y-135890
X156718Y-167640
X157226Y-133604
X157226Y-160782
X157480Y-153416
X157480Y-154686
X157480Y-073152
X157677Y-078305
X157785Y-074588
X158083Y-095250
X158490Y-096774
X158496Y-133858
X158896Y-100330
X159258Y-142240
X159512Y-052324
X159512Y-074422
X159512Y-101346
X159512Y-117348
X159766Y-059690
X159766Y-082042
X159766Y-133858
X160020Y-062738
X160020Y-084836
X160193Y-126231
X160199Y-104086
X160274Y-109982
X160274Y-163322
X160528Y-093726
X161544Y-108458
X161544Y-131572
X161798Y-115316
X161798Y-150241
X161925Y-151638
X162433Y-155956
X162433Y-154686
X162705Y-130596
X162814Y-066294
X163322Y-071120
X163322Y-109982
X163322Y-115316
X163322Y-163322
X163449Y-159258
X163449Y-160274
X163576Y-087630
X163576Y-093218
X163830Y-133858
X164338Y-118618
X164846Y-048260
X164846Y-052324
X164846Y-056261
X164846Y-070358
X164846Y-074422
X164846Y-078359
X164846Y-092456
X164846Y-096520
X164846Y-100457
X164846Y-114554
X164846Y-122555
X164973Y-149352
X165354Y-049530
X165354Y-148336
X165608Y-147320
X166878Y-058928
X166878Y-081026
X166878Y-103124
X166878Y-125222
X167894Y-147066
X168148Y-146050
X168402Y-158496
X168402Y-157226
X169164Y-153162
X170434Y-161290
X171958Y-156972
X172720Y-058674
X172720Y-080772
X172720Y-102870
X172720Y-124968
X174244Y-169672
X174752Y-153162
X175006Y-053340
X175006Y-075438
X175006Y-097536
X175006Y-119634
X175514Y-055372
X175514Y-077470
X175514Y-099568
X175514Y-121666
X175768Y-054102
X175768Y-076200
X175768Y-098298
X175768Y-120396
X176276Y-048006
X176276Y-049290
X176276Y-052070
X176276Y-070104
X176276Y-071388
X176276Y-074168
X176276Y-092202
X176276Y-093486
X176276Y-096266
X176276Y-114300
X176276Y-115584
X176276Y-118364
X176530Y-159258
X176784Y-058674
X176784Y-080772
X176784Y-102870
X176784Y-124968
X176934Y-052893
X176934Y-074991
X176934Y-097089
X176934Y-119187
X177292Y-167386
X178054Y-156972
X178562Y-063500
X178562Y-085598
X178562Y-107696
X178562Y-129794
X180340Y-055626
X180340Y-057404
X180340Y-077724
X180340Y-079502
X180340Y-099822
X180340Y-101600
X180340Y-121920
X180340Y-123698
X181610Y-169672
X183134Y-060706
X183134Y-062738
X183134Y-082804
X183134Y-084836
X183134Y-104902
X183134Y-106934
X183134Y-127000
X183134Y-129032
X185663Y-059159
X185663Y-081257
X185663Y-103355
X185663Y-125453
X185928Y-055880
X185928Y-078232
X185928Y-100076
X185928Y-122174
X186690Y-049276
X186690Y-071374
X186690Y-093472
X186690Y-115570
X186860Y-050544
X186860Y-072642
X186860Y-094740
X186860Y-116838
X187165Y-053879
X187165Y-075977
X187165Y-098075
X187165Y-120173
X187706Y-143256
X188468Y-142240
X189230Y-056388
X189230Y-100584
X189230Y-122682
X189484Y-078486
X189992Y-061214
X189992Y-083312
X189992Y-105410
X189992Y-127508
X189992Y-135890
X190500Y-140970
X190539Y-059412
X190539Y-081510
X190539Y-103608
X190539Y-125706
X191008Y-063246
X191008Y-085344
X191008Y-107442
X191008Y-129540
X191008Y-136906
X191008Y-156210
X192316Y-063246
X192316Y-085344
X192316Y-107442
X192316Y-129540
X193294Y-055626
X193294Y-077724
X193294Y-099822
X193294Y-121920
X193294Y-140970
X194154Y-050476
X194154Y-072574
X194154Y-094672
X194154Y-116770
X194310Y-048660
X194310Y-070758
X194310Y-092856
X194310Y-114954
X194564Y-051562
X194564Y-073660
X194564Y-095758
X194564Y-117856
X195072Y-061214
X195072Y-083312
X195072Y-105410
X195072Y-127508
X195580Y-059436
X195580Y-081534
X195580Y-103632
X195580Y-125730
X196088Y-049276
X196088Y-071374
X196088Y-093472
X196088Y-115570
X196342Y-055118
X196342Y-077216
X196342Y-099314
X196342Y-121412
X197104Y-143764
X198882Y-154432
X199136Y-058674
X199136Y-080772
X199136Y-102870
X199136Y-124968
X199390Y-063754
X199390Y-085852
X199390Y-107950
X199390Y-130048
X200660Y-049156
X200660Y-050546
X200660Y-052070
X200660Y-071254
X200660Y-072644
X200660Y-074168
X200660Y-093352
X200660Y-094742
X200660Y-096266
X200660Y-115450
X200660Y-116840
X200660Y-118364
X201676Y-154432
X202438Y-143764
X202692Y-135890
X202692Y-156210
X204978Y-053594
X204978Y-075692
X204978Y-097790
X204978Y-119888
X207010Y-053340
X207010Y-075438
X207010Y-097536
X207010Y-119634
X207264Y-143002
X210348Y-049958
X210348Y-072056
X210348Y-094154
X210348Y-116252
X210566Y-154432
X211836Y-156464
X216662Y-059436
X216662Y-081534
X216662Y-103632
X216662Y-125730
T2
X149352Y-169418
X151892Y-169418
X154432Y-169418
X162052Y-173736
X164592Y-173736
X167132Y-173736
X168148Y-164592
X168148Y-167132
X169672Y-173736
X172212Y-173736
X174752Y-173736
T3
X172212Y-147574
X174752Y-147574
X177292Y-147574
T4
X103886Y-150622
X164338Y-167132
X183642Y-146558
X193548Y-143764
X195326Y-151892
X203962Y-151892
X207772Y-149352
T5
X096266Y-048768
X096266Y-070866
X096266Y-092964
X096266Y-115062
X101346Y-048768
X101346Y-070866
X101346Y-092964
X101346Y-115062
X183642Y-151384
X188722Y-151384
X205486Y-062484
X205486Y-084582
X205486Y-106680
X205486Y-128778
X210566Y-062484
X210566Y-084582
X210566Y-106680
X210566Y-128778
T6
X102506Y-055014
X102506Y-077112
X102506Y-099210
X102506Y-121308
X102506Y-138684
X108006Y-055014
X108006Y-077112
X108006Y-099210
X108006Y-121308
X108006Y-138684
X184640Y-158904
X184640Y-164404
X188840Y-158904
X188840Y-164404
X193040Y-158904
X193040Y-164404
X198826Y-056238
X198826Y-078336
X198826Y-100434
X198826Y-122532
X198826Y-138684
X204326Y-056238
X204326Y-078336
X204326Y-100434
X204326Y-122532
X204326Y-138684
X205604Y-158904
X205604Y-164404
X209804Y-158904
X209804Y-164404
X214004Y-158904
X214004Y-164404
T7
X095206Y-055014
X095206Y-077112
X095206Y-099210
X095206Y-121308
X095206Y-138684
X184640Y-171704
X193040Y-171704
X205604Y-171704
X211626Y-056238
X211626Y-078336
X211626Y-100434
X211626Y-122532
X211626Y-138684
X214004Y-171704
T8
X093980Y-043180
X093980Y-172720
X213360Y-043180
X213360Y-148844
T0
M30
