M48
;DRILL file {KiCad (5.0.2)-1} date 1/18/2019 9:25:03 PM
;FORMAT={-:-/ absolute / inch / decimal}
FMAT,2
INCH,TZ
T1C0.0157
T2C0.0354
T3C0.0394
T4C0.0433
T5C0.0591
T6C0.0709
T7C0.1181
%
G90
G05
T1
X3.55Y-2.04
X3.55Y-2.91
X3.55Y-3.78
X3.55Y-4.65
X3.7986Y-2.4132
X3.7986Y-3.2832
X3.7986Y-4.1532
X3.7986Y-5.0232
X3.93Y-2.28
X3.93Y-3.15
X3.93Y-4.02
X3.93Y-4.89
X3.95Y-6.03
X3.95Y-6.23
X4.Y-6.19
X4.01Y-2.27
X4.01Y-3.14
X4.01Y-4.01
X4.01Y-4.88
X4.18Y-2.33
X4.18Y-2.39
X4.18Y-2.4447
X4.18Y-3.2
X4.18Y-3.26
X4.18Y-3.3147
X4.18Y-4.07
X4.18Y-4.13
X4.18Y-4.1847
X4.18Y-4.94
X4.18Y-5.
X4.18Y-5.0547
X4.22Y-5.59
X4.23Y-1.87
X4.23Y-2.74
X4.23Y-3.61
X4.23Y-4.48
X4.24Y-2.07
X4.24Y-2.94
X4.24Y-3.81
X4.24Y-4.68
X4.26Y-5.96
X4.34Y-5.96
X4.35Y-2.21
X4.35Y-3.08
X4.35Y-3.95
X4.35Y-4.82
X4.36Y-2.44
X4.36Y-3.31
X4.36Y-4.18
X4.36Y-5.05
X4.38Y-2.04
X4.38Y-2.91
X4.38Y-3.78
X4.38Y-4.65
X4.4Y-1.97
X4.4Y-2.84
X4.4Y-3.71
X4.4Y-4.58
X4.42Y-2.35
X4.42Y-3.22
X4.42Y-4.09
X4.42Y-4.96
X4.43Y-2.4643
X4.43Y-3.3343
X4.43Y-4.2043
X4.43Y-5.0743
X4.4361Y-2.3928
X4.4361Y-3.2628
X4.4361Y-4.1328
X4.4361Y-5.0028
X4.46Y-6.07
X4.47Y-2.19
X4.47Y-3.06
X4.47Y-3.93
X4.47Y-4.8
X4.5085Y-1.89
X4.5085Y-2.76
X4.5085Y-3.63
X4.5085Y-4.5
X4.56Y-1.89
X4.56Y-2.76
X4.56Y-3.63
X4.56Y-4.5
X4.5785Y-2.0409
X4.5785Y-2.9109
X4.5785Y-3.7809
X4.5785Y-4.6509
X4.59Y-2.18
X4.6Y-1.97
X4.6Y-2.84
X4.6Y-3.71
X4.6Y-4.58
X4.61Y-3.04
X4.63Y-3.91
X4.63Y-4.78
X4.665Y-5.575
X4.7113Y-2.2588
X4.7113Y-3.1288
X4.7113Y-3.9988
X4.7113Y-4.8688
X4.7233Y-2.3901
X4.7233Y-3.2601
X4.7233Y-4.1301
X4.7233Y-5.0001
X4.73Y-2.44
X4.73Y-3.31
X4.73Y-4.18
X4.73Y-5.05
X4.76Y-2.18
X4.76Y-3.05
X4.76Y-3.92
X4.76Y-4.79
X4.765Y-5.855
X4.7704Y-2.0509
X4.7704Y-2.9209
X4.7704Y-3.7909
X4.7704Y-4.6609
X4.8125Y-5.8425
X4.8125Y-5.9775
X4.85Y-5.575
X4.85Y-5.93
X4.87Y-1.91
X4.87Y-1.99
X4.87Y-2.78
X4.87Y-2.86
X4.87Y-3.65
X4.87Y-3.73
X4.87Y-4.52
X4.87Y-4.6
X4.98Y-2.12
X4.98Y-2.19
X4.98Y-2.99
X4.98Y-3.06
X4.98Y-3.86
X4.98Y-3.93
X4.98Y-4.73
X4.98Y-4.8
X5.04Y-5.575
X5.05Y-1.88
X5.05Y-2.75
X5.05Y-3.62
X5.05Y-4.49
X5.1141Y-2.2976
X5.1141Y-3.1676
X5.1141Y-4.0376
X5.1141Y-4.9076
X5.12Y-2.07
X5.12Y-2.94
X5.12Y-3.81
X5.12Y-4.68
X5.128Y-6.457
X5.129Y-6.006
X5.14Y-2.33
X5.14Y-2.4394
X5.14Y-2.49
X5.14Y-3.2
X5.14Y-3.3094
X5.14Y-3.36
X5.14Y-4.07
X5.14Y-4.1794
X5.14Y-4.23
X5.14Y-4.94
X5.14Y-5.0494
X5.14Y-5.1
X5.16Y-2.25
X5.16Y-3.12
X5.16Y-3.99
X5.16Y-4.86
X5.17Y-2.2
X5.17Y-3.07
X5.17Y-3.94
X5.17Y-4.81
X5.175Y-5.455
X5.19Y-2.28
X5.19Y-3.15
X5.19Y-4.02
X5.19Y-4.89
X5.2235Y-5.4365
X5.255Y-5.405
X5.28Y-2.07
X5.28Y-2.94
X5.28Y-3.81
X5.28Y-4.68
X5.3114Y-5.3936
X5.32Y-5.65
X5.51Y-2.94
X5.51Y-3.8
X5.51Y-4.68
X5.5175Y-6.71
X5.52Y-5.23
X5.53Y-2.05
X5.55Y-6.88
X5.565Y-5.395
X5.59Y-2.165
X5.59Y-2.32
X5.59Y-2.48
X5.59Y-3.035
X5.59Y-3.19
X5.59Y-3.35
X5.59Y-3.905
X5.59Y-4.06
X5.59Y-4.22
X5.59Y-4.775
X5.59Y-4.93
X5.59Y-5.09
X5.59Y-6.75
X5.63Y-5.65
X5.65Y-3.31
X5.65Y-4.19
X5.66Y-4.41
X5.66Y-6.3
X5.67Y-2.67
X5.6837Y-3.55
X5.69Y-2.47
X5.69Y-6.
X5.7Y-5.06
X5.7037Y-6.05
X5.71Y-5.14
X5.72Y-5.19
X5.72Y-5.92
X5.72Y-6.79
X5.75Y-5.06
X5.76Y-6.55
X5.76Y-6.84
X5.78Y-2.03
X5.78Y-2.9
X5.78Y-4.52
X5.78Y-4.64
X5.78Y-5.34
X5.79Y-4.06
X5.79Y-5.69
X5.79Y-6.92
X5.8Y-3.19
X5.8Y-3.65
X5.8Y-3.76
X5.8Y-4.78
X5.8Y-4.93
X5.8Y-4.98
X5.8Y-2.32
X5.8098Y-5.1598
X5.81Y-5.06
X5.83Y-2.13
X5.84Y-2.82
X5.84Y-4.14
X5.85Y-4.18
X5.85Y-5.2
X5.86Y-5.15
X5.86Y-6.43
X5.88Y-1.86
X5.88Y-3.34
X5.88Y-5.26
X5.88Y-3.23
X5.89Y-2.32
X5.89Y-6.
X5.9Y-2.37
X5.9Y-3.91
X5.91Y-6.84
X5.94Y-5.998
X5.94Y-6.15
X5.95Y-3.06
X5.95Y-5.615
X5.95Y-5.665
X5.97Y-2.17
X5.98Y-5.1
X5.98Y-6.88
X5.985Y-5.58
X6.Y-2.32
X6.Y-3.18
X6.Y-4.92
X6.Y-4.05
X6.01Y-5.16
X6.02Y-6.19
X6.02Y-5.85
X6.0423Y-5.12
X6.07Y-2.32
X6.07Y-3.18
X6.07Y-4.05
X6.07Y-4.92
X6.07Y-5.85
X6.07Y-6.21
X6.08Y-5.04
X6.095Y-5.62
X6.1Y-2.07
X6.11Y-5.12
X6.12Y-6.88
X6.13Y-5.32
X6.14Y-5.15
X6.1437Y-2.23
X6.145Y-5.635
X6.16Y-2.08
X6.16Y-5.19
X6.17Y-5.35
X6.17Y-6.6
X6.19Y-5.26
X6.19Y-6.33
X6.2Y-6.04
X6.2Y-6.09
X6.2Y-2.88
X6.2077Y-3.0829
X6.212Y-2.9365
X6.2237Y-3.75
X6.2397Y-3.81
X6.24Y-5.27
X6.2557Y-3.95
X6.27Y-5.6
X6.28Y-2.06
X6.28Y-2.93
X6.28Y-3.99
X6.28Y-4.62
X6.29Y-2.35
X6.29Y-3.23
X6.29Y-5.27
X6.3Y-2.47
X6.3Y-3.34
X6.3068Y-4.9697
X6.307Y-4.0979
X6.31Y-4.33
X6.31Y-6.43
X6.32Y-3.69
X6.36Y-4.27
X6.36Y-5.18
X6.37Y-4.54
X6.37Y-5.915
X6.375Y-5.97
X6.395Y-6.14
X6.395Y-6.09
X6.4057Y-5.1416
X6.41Y-2.61
X6.43Y-2.8
X6.43Y-4.33
X6.43Y-4.54
X6.43Y-6.43
X6.435Y-6.27
X6.435Y-6.31
X6.44Y-3.45
X6.44Y-3.67
X6.45Y-5.27
X6.47Y-4.67
X6.49Y-1.9
X6.49Y-2.06
X6.49Y-2.215
X6.49Y-2.77
X6.49Y-2.93
X6.49Y-3.085
X6.49Y-3.64
X6.49Y-3.8
X6.49Y-3.955
X6.49Y-4.51
X6.49Y-4.825
X6.495Y-5.88
X6.51Y-1.95
X6.51Y-5.84
X6.52Y-5.8
X6.57Y-2.32
X6.57Y-3.19
X6.57Y-4.06
X6.57Y-4.93
X6.61Y-5.79
X6.62Y-5.75
X6.63Y-6.24
X6.63Y-6.19
X6.66Y-6.03
X6.71Y-6.35
X6.77Y-6.18
X6.8Y-2.31
X6.8Y-3.18
X6.8Y-4.05
X6.8Y-4.92
X6.86Y-6.68
X6.88Y-6.03
X6.89Y-2.1
X6.89Y-2.97
X6.89Y-3.84
X6.89Y-4.71
X6.91Y-2.18
X6.91Y-3.05
X6.91Y-3.92
X6.91Y-4.79
X6.92Y-2.13
X6.92Y-3.
X6.92Y-3.87
X6.92Y-4.74
X6.94Y-1.89
X6.94Y-1.9406
X6.94Y-2.05
X6.94Y-2.76
X6.94Y-2.8106
X6.94Y-2.92
X6.94Y-3.63
X6.94Y-3.6806
X6.94Y-3.79
X6.94Y-4.5
X6.94Y-4.5506
X6.94Y-4.66
X6.95Y-6.27
X6.96Y-2.31
X6.96Y-3.18
X6.96Y-4.05
X6.96Y-4.92
X6.9659Y-2.0824
X6.9659Y-2.9524
X6.9659Y-3.8224
X6.9659Y-4.6924
X6.98Y-6.59
X7.01Y-6.18
X7.03Y-2.5
X7.03Y-3.37
X7.03Y-4.24
X7.03Y-5.11
X7.1Y-2.19
X7.1Y-2.26
X7.1Y-3.06
X7.1Y-3.13
X7.1Y-3.93
X7.1Y-4.
X7.1Y-4.8
X7.1Y-4.87
X7.15Y-6.68
X7.21Y-2.39
X7.21Y-2.47
X7.21Y-3.26
X7.21Y-3.34
X7.21Y-4.13
X7.21Y-4.21
X7.21Y-5.
X7.21Y-5.08
X7.3096Y-2.3291
X7.3096Y-3.1991
X7.3096Y-4.0691
X7.3096Y-4.9391
X7.32Y-2.2
X7.32Y-3.08
X7.32Y-3.94
X7.32Y-4.81
X7.35Y-1.94
X7.35Y-2.81
X7.35Y-3.68
X7.35Y-4.55
X7.3567Y-1.9899
X7.3567Y-2.8599
X7.3567Y-3.7299
X7.3567Y-4.5999
X7.3687Y-2.1212
X7.3687Y-2.9912
X7.3687Y-3.8612
X7.3687Y-4.7312
X7.39Y-5.64
X7.42Y-5.6
X7.45Y-2.22
X7.45Y-3.96
X7.45Y-4.83
X7.46Y-3.09
X7.48Y-2.41
X7.48Y-3.28
X7.48Y-4.15
X7.48Y-5.02
X7.48Y-5.35
X7.5Y-5.55
X7.5015Y-2.3391
X7.5015Y-3.2091
X7.5015Y-4.0791
X7.5015Y-4.9491
X7.52Y-2.49
X7.52Y-3.36
X7.52Y-4.23
X7.52Y-5.1
X7.52Y-5.39
X7.52Y-6.15
X7.5715Y-2.49
X7.5715Y-3.36
X7.5715Y-4.23
X7.5715Y-5.1
X7.61Y-2.19
X7.61Y-3.06
X7.61Y-3.93
X7.61Y-4.8
X7.61Y-5.55
X7.6439Y-1.9872
X7.6439Y-2.8572
X7.6439Y-3.7272
X7.6439Y-4.5972
X7.65Y-1.9157
X7.65Y-2.7857
X7.65Y-3.6557
X7.65Y-4.5257
X7.66Y-2.03
X7.66Y-2.9
X7.66Y-3.77
X7.66Y-4.64
X7.68Y-2.41
X7.68Y-3.28
X7.68Y-4.15
X7.68Y-5.02
X7.7Y-2.34
X7.7Y-3.21
X7.7Y-4.08
X7.7Y-4.95
X7.72Y-1.94
X7.72Y-2.81
X7.72Y-3.68
X7.72Y-4.55
X7.73Y-2.17
X7.73Y-3.04
X7.73Y-3.91
X7.73Y-4.78
X7.76Y-5.66
X7.83Y-6.08
X7.84Y-2.31
X7.84Y-3.18
X7.84Y-4.05
X7.84Y-4.92
X7.85Y-2.51
X7.85Y-3.38
X7.85Y-4.25
X7.85Y-5.12
X7.9Y-1.9353
X7.9Y-1.99
X7.9Y-2.05
X7.9Y-2.8053
X7.9Y-2.86
X7.9Y-2.92
X7.9Y-3.6753
X7.9Y-3.73
X7.9Y-3.79
X7.9Y-4.5453
X7.9Y-4.6
X7.9Y-4.66
X7.94Y-6.08
X7.97Y-5.66
X7.98Y-5.35
X7.98Y-6.15
X8.07Y-2.11
X8.07Y-2.98
X8.07Y-3.85
X8.07Y-4.72
X8.15Y-2.1
X8.15Y-2.97
X8.15Y-3.84
X8.15Y-4.71
X8.16Y-5.63
X8.2814Y-1.9668
X8.2814Y-2.8368
X8.2814Y-3.7068
X8.2814Y-4.5768
X8.29Y-6.08
X8.34Y-6.16
X8.53Y-2.34
X8.53Y-3.21
X8.53Y-4.08
X8.53Y-4.95
T2
X5.88Y-6.67
X5.98Y-6.67
X6.08Y-6.67
X6.38Y-6.84
X6.48Y-6.84
X6.58Y-6.84
X6.68Y-6.84
X6.78Y-6.84
X6.88Y-6.84
X6.62Y-6.48
X6.62Y-6.58
T3
X6.78Y-5.81
X6.88Y-5.81
X6.98Y-5.81
T4
X8.18Y-5.88
X7.23Y-5.77
X8.03Y-5.98
X7.62Y-5.66
X6.47Y-6.58
X7.69Y-5.98
X4.09Y-5.93
T5
X8.09Y-3.33
X8.29Y-3.33
X8.09Y-5.07
X8.29Y-5.07
X3.79Y-3.66
X3.99Y-3.66
X8.09Y-4.2
X8.29Y-4.2
X3.79Y-2.79
X3.99Y-2.79
X3.79Y-4.53
X3.99Y-4.53
X3.79Y-1.92
X3.99Y-1.92
X7.23Y-5.96
X7.43Y-5.96
X8.09Y-2.46
X8.29Y-2.46
T6
X4.0357Y-3.0359
X4.2522Y-3.0359
X7.8278Y-5.46
X8.0443Y-5.46
X7.8278Y-3.9541
X8.0443Y-3.9541
X8.0946Y-6.2561
X8.0946Y-6.4726
X8.26Y-6.2561
X8.26Y-6.4726
X8.4254Y-6.2561
X8.4254Y-6.4726
X7.8278Y-2.2141
X8.0443Y-2.2141
X4.0357Y-2.1659
X4.2522Y-2.1659
X4.0357Y-4.7759
X4.2522Y-4.7759
X7.2693Y-6.2561
X7.2693Y-6.4726
X7.4346Y-6.2561
X7.4346Y-6.4726
X7.6Y-6.2561
X7.6Y-6.4726
X7.8278Y-3.0841
X8.0443Y-3.0841
X4.0357Y-3.9059
X4.2522Y-3.9059
X7.8278Y-4.8241
X8.0443Y-4.8241
X4.0357Y-5.46
X4.2522Y-5.46
T7
X3.7483Y-3.9059
X8.3317Y-4.8241
X3.7483Y-5.46
X3.7483Y-3.0359
X8.3317Y-5.46
X8.3317Y-3.9541
X8.0946Y-6.76
X8.4254Y-6.76
X8.3317Y-2.2141
X3.7483Y-2.1659
X3.7483Y-4.7759
X7.2693Y-6.76
X7.6Y-6.76
X8.3317Y-3.0841
T0
M30
