G04 #@! TF.GenerationSoftware,KiCad,Pcbnew,(5.0.2)-1*
G04 #@! TF.CreationDate,2019-01-18T21:24:51-05:00*
G04 #@! TF.ProjectId,Slave,536c6176-652e-46b6-9963-61645f706362,rev?*
G04 #@! TF.SameCoordinates,Original*
G04 #@! TF.FileFunction,Paste,Bot*
G04 #@! TF.FilePolarity,Positive*
%FSLAX46Y46*%
G04 Gerber Fmt 4.6, Leading zero omitted, Abs format (unit mm)*
G04 Created by KiCad (PCBNEW (5.0.2)-1) date 1/18/2019 9:24:51 PM*
%MOMM*%
%LPD*%
G01*
G04 APERTURE LIST*
%ADD10R,1.500000X1.400000*%
%ADD11R,1.400000X1.500000*%
%ADD12R,1.400000X1.000000*%
%ADD13R,2.200000X4.000000*%
%ADD14R,0.620000X1.220000*%
%ADD15R,1.000000X1.400000*%
%ADD16R,1.600000X1.900000*%
G04 APERTURE END LIST*
D10*
G04 #@! TO.C,C3303*
X164846000Y-59690000D03*
X164846000Y-57640000D03*
G04 #@! TD*
D11*
G04 #@! TO.C,R3306*
X163086000Y-52324000D03*
X161036000Y-52324000D03*
G04 #@! TD*
D10*
G04 #@! TO.C,C3302*
X166878000Y-47988000D03*
X166878000Y-50038000D03*
G04 #@! TD*
G04 #@! TO.C,C2903*
X164846000Y-81788000D03*
X164846000Y-79738000D03*
G04 #@! TD*
D11*
G04 #@! TO.C,C2902*
X164828000Y-68834000D03*
X166878000Y-68834000D03*
G04 #@! TD*
G04 #@! TO.C,R2906*
X163086000Y-74422000D03*
X161036000Y-74422000D03*
G04 #@! TD*
G04 #@! TO.C,C2502*
X165100000Y-90932000D03*
X167150000Y-90932000D03*
G04 #@! TD*
D10*
G04 #@! TO.C,C2503*
X164846000Y-103886000D03*
X164846000Y-101836000D03*
G04 #@! TD*
D11*
G04 #@! TO.C,R2506*
X163086000Y-96520000D03*
X161036000Y-96520000D03*
G04 #@! TD*
D10*
G04 #@! TO.C,C2103*
X164846000Y-125984000D03*
X164846000Y-123934000D03*
G04 #@! TD*
D11*
G04 #@! TO.C,C2102*
X164846000Y-113030000D03*
X166896000Y-113030000D03*
G04 #@! TD*
G04 #@! TO.C,R2106*
X163086000Y-118618000D03*
X161036000Y-118618000D03*
G04 #@! TD*
D10*
G04 #@! TO.C,C1703*
X141986000Y-117856000D03*
X141986000Y-119906000D03*
G04 #@! TD*
D11*
G04 #@! TO.C,C1702*
X141986000Y-131064000D03*
X139936000Y-131064000D03*
G04 #@! TD*
G04 #@! TO.C,R1706*
X143746000Y-125222000D03*
X145796000Y-125222000D03*
G04 #@! TD*
G04 #@! TO.C,C1302*
X142004000Y-109728000D03*
X139954000Y-109728000D03*
G04 #@! TD*
D10*
G04 #@! TO.C,C1303*
X141986000Y-95758000D03*
X141986000Y-97808000D03*
G04 #@! TD*
D11*
G04 #@! TO.C,R1306*
X143510000Y-103124000D03*
X145560000Y-103124000D03*
G04 #@! TD*
D10*
G04 #@! TO.C,C903*
X141986000Y-73660000D03*
X141986000Y-75710000D03*
G04 #@! TD*
D11*
G04 #@! TO.C,C902*
X142004000Y-87376000D03*
X139954000Y-87376000D03*
G04 #@! TD*
G04 #@! TO.C,R906*
X143746000Y-81026000D03*
X145796000Y-81026000D03*
G04 #@! TD*
D12*
G04 #@! TO.C,Q3602*
X206672000Y-51054000D03*
X208872000Y-52004000D03*
X208872000Y-50104000D03*
G04 #@! TD*
D13*
G04 #@! TO.C,R3604*
X204216000Y-50546000D03*
X198816000Y-50546000D03*
G04 #@! TD*
D10*
G04 #@! TO.C,R3601*
X196088000Y-53104000D03*
X196088000Y-51054000D03*
G04 #@! TD*
D11*
G04 #@! TO.C,C3503*
X191498000Y-53086000D03*
X193548000Y-53086000D03*
G04 #@! TD*
D10*
G04 #@! TO.C,C3601*
X192278000Y-49004000D03*
X192278000Y-51054000D03*
G04 #@! TD*
G04 #@! TO.C,R3312*
X185928000Y-51798000D03*
X185928000Y-53848000D03*
G04 #@! TD*
G04 #@! TO.C,R3403*
X184658000Y-58184000D03*
X184658000Y-56134000D03*
G04 #@! TD*
G04 #@! TO.C,C3405*
X182118000Y-58184000D03*
X182118000Y-56134000D03*
G04 #@! TD*
G04 #@! TO.C,C3301*
X174752000Y-50056000D03*
X174752000Y-48006000D03*
G04 #@! TD*
G04 #@! TO.C,R3401*
X186690000Y-62502000D03*
X186690000Y-60452000D03*
G04 #@! TD*
D11*
G04 #@! TO.C,R3404*
X188722000Y-58166000D03*
X186672000Y-58166000D03*
G04 #@! TD*
D10*
G04 #@! TO.C,R3402*
X188722000Y-60452000D03*
X188722000Y-62502000D03*
G04 #@! TD*
G04 #@! TO.C,C3304*
X173990000Y-57930000D03*
X173990000Y-55880000D03*
G04 #@! TD*
D14*
G04 #@! TO.C,Q3302*
X199330641Y-62531987D03*
X198380641Y-62531987D03*
X197430641Y-62531987D03*
X197430641Y-59911987D03*
X199330641Y-59911987D03*
X198380641Y-59911987D03*
G04 #@! TD*
D11*
G04 #@! TO.C,C3401*
X191752000Y-61722000D03*
X193802000Y-61722000D03*
G04 #@! TD*
G04 #@! TO.C,L3401*
X193802000Y-59690000D03*
X191752000Y-59690000D03*
G04 #@! TD*
G04 #@! TO.C,C3501*
X191244000Y-57150000D03*
X193294000Y-57150000D03*
G04 #@! TD*
G04 #@! TO.C,R3603*
X188214000Y-49022000D03*
X190264000Y-49022000D03*
G04 #@! TD*
G04 #@! TO.C,R3605*
X190264000Y-51308000D03*
X188214000Y-51308000D03*
G04 #@! TD*
G04 #@! TO.C,R3205*
X190264000Y-73406000D03*
X188214000Y-73406000D03*
G04 #@! TD*
D10*
G04 #@! TO.C,R3002*
X188722000Y-82550000D03*
X188722000Y-84600000D03*
G04 #@! TD*
D11*
G04 #@! TO.C,R3004*
X188722000Y-80264000D03*
X186672000Y-80264000D03*
G04 #@! TD*
G04 #@! TO.C,R3203*
X188214000Y-71120000D03*
X190264000Y-71120000D03*
G04 #@! TD*
D10*
G04 #@! TO.C,R3001*
X186690000Y-84600000D03*
X186690000Y-82550000D03*
G04 #@! TD*
G04 #@! TO.C,C3201*
X192278000Y-71102000D03*
X192278000Y-73152000D03*
G04 #@! TD*
G04 #@! TO.C,R3201*
X196088000Y-75202000D03*
X196088000Y-73152000D03*
G04 #@! TD*
D13*
G04 #@! TO.C,R3204*
X204216000Y-72644000D03*
X198816000Y-72644000D03*
G04 #@! TD*
D11*
G04 #@! TO.C,C3103*
X191498000Y-75184000D03*
X193548000Y-75184000D03*
G04 #@! TD*
D12*
G04 #@! TO.C,Q3202*
X206672000Y-73152000D03*
X208872000Y-74102000D03*
X208872000Y-72202000D03*
G04 #@! TD*
D11*
G04 #@! TO.C,L3001*
X193802000Y-81788000D03*
X191752000Y-81788000D03*
G04 #@! TD*
G04 #@! TO.C,C3101*
X191244000Y-79248000D03*
X193294000Y-79248000D03*
G04 #@! TD*
G04 #@! TO.C,C3001*
X191752000Y-83820000D03*
X193802000Y-83820000D03*
G04 #@! TD*
D14*
G04 #@! TO.C,Q2902*
X199330641Y-84629987D03*
X198380641Y-84629987D03*
X197430641Y-84629987D03*
X197430641Y-82009987D03*
X199330641Y-82009987D03*
X198380641Y-82009987D03*
G04 #@! TD*
D10*
G04 #@! TO.C,C2901*
X174752000Y-72154000D03*
X174752000Y-70104000D03*
G04 #@! TD*
G04 #@! TO.C,C3005*
X182118000Y-80282000D03*
X182118000Y-78232000D03*
G04 #@! TD*
G04 #@! TO.C,R3003*
X184658000Y-80282000D03*
X184658000Y-78232000D03*
G04 #@! TD*
G04 #@! TO.C,C2904*
X173990000Y-80028000D03*
X173990000Y-77978000D03*
G04 #@! TD*
G04 #@! TO.C,R2912*
X185928000Y-73896000D03*
X185928000Y-75946000D03*
G04 #@! TD*
G04 #@! TO.C,R2602*
X188722000Y-104648000D03*
X188722000Y-106698000D03*
G04 #@! TD*
D14*
G04 #@! TO.C,Q2502*
X199330641Y-106727987D03*
X198380641Y-106727987D03*
X197430641Y-106727987D03*
X197430641Y-104107987D03*
X199330641Y-104107987D03*
X198380641Y-104107987D03*
G04 #@! TD*
D11*
G04 #@! TO.C,C2701*
X191244000Y-101346000D03*
X193294000Y-101346000D03*
G04 #@! TD*
D10*
G04 #@! TO.C,R2601*
X186690000Y-106698000D03*
X186690000Y-104648000D03*
G04 #@! TD*
D11*
G04 #@! TO.C,R2604*
X188722000Y-102362000D03*
X186672000Y-102362000D03*
G04 #@! TD*
G04 #@! TO.C,L2601*
X193802000Y-103886000D03*
X191752000Y-103886000D03*
G04 #@! TD*
G04 #@! TO.C,C2601*
X191752000Y-105918000D03*
X193802000Y-105918000D03*
G04 #@! TD*
D12*
G04 #@! TO.C,Q2802*
X206672000Y-95250000D03*
X208872000Y-96200000D03*
X208872000Y-94300000D03*
G04 #@! TD*
D10*
G04 #@! TO.C,R2801*
X196088000Y-97300000D03*
X196088000Y-95250000D03*
G04 #@! TD*
D11*
G04 #@! TO.C,C2703*
X191498000Y-97282000D03*
X193548000Y-97282000D03*
G04 #@! TD*
D13*
G04 #@! TO.C,R2804*
X204216000Y-94742000D03*
X198816000Y-94742000D03*
G04 #@! TD*
D10*
G04 #@! TO.C,C2801*
X192278000Y-93200000D03*
X192278000Y-95250000D03*
G04 #@! TD*
G04 #@! TO.C,C2605*
X182118000Y-102380000D03*
X182118000Y-100330000D03*
G04 #@! TD*
G04 #@! TO.C,R2603*
X184658000Y-102380000D03*
X184658000Y-100330000D03*
G04 #@! TD*
G04 #@! TO.C,R2512*
X185928000Y-95994000D03*
X185928000Y-98044000D03*
G04 #@! TD*
D11*
G04 #@! TO.C,R2803*
X188214000Y-93218000D03*
X190264000Y-93218000D03*
G04 #@! TD*
D10*
G04 #@! TO.C,C2504*
X173990000Y-102126000D03*
X173990000Y-100076000D03*
G04 #@! TD*
D11*
G04 #@! TO.C,R2805*
X190264000Y-95504000D03*
X188214000Y-95504000D03*
G04 #@! TD*
D10*
G04 #@! TO.C,C2501*
X174752000Y-94252000D03*
X174752000Y-92202000D03*
G04 #@! TD*
G04 #@! TO.C,R2202*
X188722000Y-126746000D03*
X188722000Y-128796000D03*
G04 #@! TD*
G04 #@! TO.C,R2201*
X186690000Y-128796000D03*
X186690000Y-126746000D03*
G04 #@! TD*
D11*
G04 #@! TO.C,C2201*
X191752000Y-128016000D03*
X193802000Y-128016000D03*
G04 #@! TD*
G04 #@! TO.C,L2201*
X193802000Y-125984000D03*
X191752000Y-125984000D03*
G04 #@! TD*
D12*
G04 #@! TO.C,Q2402*
X206672000Y-117348000D03*
X208872000Y-118298000D03*
X208872000Y-116398000D03*
G04 #@! TD*
D10*
G04 #@! TO.C,R2401*
X196088000Y-119398000D03*
X196088000Y-117348000D03*
G04 #@! TD*
G04 #@! TO.C,C2401*
X192278000Y-115298000D03*
X192278000Y-117348000D03*
G04 #@! TD*
D11*
G04 #@! TO.C,C2303*
X191498000Y-119380000D03*
X193548000Y-119380000D03*
G04 #@! TD*
D13*
G04 #@! TO.C,R2404*
X204216000Y-116840000D03*
X198816000Y-116840000D03*
G04 #@! TD*
D11*
G04 #@! TO.C,R2204*
X188722000Y-124460000D03*
X186672000Y-124460000D03*
G04 #@! TD*
G04 #@! TO.C,R2403*
X188214000Y-115316000D03*
X190264000Y-115316000D03*
G04 #@! TD*
G04 #@! TO.C,R2405*
X190264000Y-117602000D03*
X188214000Y-117602000D03*
G04 #@! TD*
D10*
G04 #@! TO.C,C2104*
X173990000Y-124224000D03*
X173990000Y-122174000D03*
G04 #@! TD*
G04 #@! TO.C,R2112*
X185928000Y-118092000D03*
X185928000Y-120142000D03*
G04 #@! TD*
G04 #@! TO.C,C2101*
X174752000Y-116350000D03*
X174752000Y-114300000D03*
G04 #@! TD*
G04 #@! TO.C,C2205*
X182118000Y-124478000D03*
X182118000Y-122428000D03*
G04 #@! TD*
G04 #@! TO.C,R2203*
X184658000Y-124478000D03*
X184658000Y-122428000D03*
G04 #@! TD*
D14*
G04 #@! TO.C,Q2102*
X199330641Y-128825987D03*
X198380641Y-128825987D03*
X197430641Y-128825987D03*
X197430641Y-126205987D03*
X199330641Y-126205987D03*
X198380641Y-126205987D03*
G04 #@! TD*
D11*
G04 #@! TO.C,C2301*
X191244000Y-123444000D03*
X193294000Y-123444000D03*
G04 #@! TD*
D10*
G04 #@! TO.C,R1803*
X122174000Y-119362000D03*
X122174000Y-121412000D03*
G04 #@! TD*
G04 #@! TO.C,C1805*
X124714000Y-119362000D03*
X124714000Y-121412000D03*
G04 #@! TD*
G04 #@! TO.C,C1701*
X132080000Y-127490000D03*
X132080000Y-129540000D03*
G04 #@! TD*
G04 #@! TO.C,R1712*
X120904000Y-125748000D03*
X120904000Y-123698000D03*
G04 #@! TD*
G04 #@! TO.C,C1704*
X132842000Y-119616000D03*
X132842000Y-121666000D03*
G04 #@! TD*
D11*
G04 #@! TO.C,R1804*
X118110000Y-119380000D03*
X120160000Y-119380000D03*
G04 #@! TD*
G04 #@! TO.C,R2005*
X116568000Y-126238000D03*
X118618000Y-126238000D03*
G04 #@! TD*
G04 #@! TO.C,R2003*
X118618000Y-128524000D03*
X116568000Y-128524000D03*
G04 #@! TD*
D10*
G04 #@! TO.C,R1801*
X120142000Y-115044000D03*
X120142000Y-117094000D03*
G04 #@! TD*
G04 #@! TO.C,R1802*
X118110000Y-117094000D03*
X118110000Y-115044000D03*
G04 #@! TD*
D11*
G04 #@! TO.C,L1801*
X113030000Y-117856000D03*
X115080000Y-117856000D03*
G04 #@! TD*
G04 #@! TO.C,C1901*
X115588000Y-120396000D03*
X113538000Y-120396000D03*
G04 #@! TD*
G04 #@! TO.C,C1801*
X115080000Y-115824000D03*
X113030000Y-115824000D03*
G04 #@! TD*
D14*
G04 #@! TO.C,Q1702*
X107501359Y-115014013D03*
X108451359Y-115014013D03*
X109401359Y-115014013D03*
X109401359Y-117634013D03*
X107501359Y-117634013D03*
X108451359Y-117634013D03*
G04 #@! TD*
D13*
G04 #@! TO.C,R2004*
X102616000Y-127000000D03*
X108016000Y-127000000D03*
G04 #@! TD*
D11*
G04 #@! TO.C,C1903*
X115334000Y-124460000D03*
X113284000Y-124460000D03*
G04 #@! TD*
D10*
G04 #@! TO.C,R2001*
X110744000Y-124442000D03*
X110744000Y-126492000D03*
G04 #@! TD*
G04 #@! TO.C,C2001*
X114554000Y-128542000D03*
X114554000Y-126492000D03*
G04 #@! TD*
D12*
G04 #@! TO.C,Q2002*
X100160000Y-126492000D03*
X97960000Y-125542000D03*
X97960000Y-127442000D03*
G04 #@! TD*
D10*
G04 #@! TO.C,C1601*
X114554000Y-106444000D03*
X114554000Y-104394000D03*
G04 #@! TD*
G04 #@! TO.C,R1601*
X110744000Y-102344000D03*
X110744000Y-104394000D03*
G04 #@! TD*
D12*
G04 #@! TO.C,Q1602*
X100160000Y-104394000D03*
X97960000Y-103444000D03*
X97960000Y-105344000D03*
G04 #@! TD*
D13*
G04 #@! TO.C,R1604*
X102616000Y-104902000D03*
X108016000Y-104902000D03*
G04 #@! TD*
D14*
G04 #@! TO.C,Q1302*
X107501359Y-92916013D03*
X108451359Y-92916013D03*
X109401359Y-92916013D03*
X109401359Y-95536013D03*
X107501359Y-95536013D03*
X108451359Y-95536013D03*
G04 #@! TD*
D11*
G04 #@! TO.C,C1503*
X115334000Y-102362000D03*
X113284000Y-102362000D03*
G04 #@! TD*
G04 #@! TO.C,L1401*
X113030000Y-95758000D03*
X115080000Y-95758000D03*
G04 #@! TD*
G04 #@! TO.C,C1401*
X115080000Y-93726000D03*
X113030000Y-93726000D03*
G04 #@! TD*
G04 #@! TO.C,C1501*
X115588000Y-98298000D03*
X113538000Y-98298000D03*
G04 #@! TD*
G04 #@! TO.C,R1605*
X116568000Y-104140000D03*
X118618000Y-104140000D03*
G04 #@! TD*
D10*
G04 #@! TO.C,R1401*
X120142000Y-92946000D03*
X120142000Y-94996000D03*
G04 #@! TD*
G04 #@! TO.C,R1402*
X118110000Y-94996000D03*
X118110000Y-92946000D03*
G04 #@! TD*
D11*
G04 #@! TO.C,R1404*
X118110000Y-97282000D03*
X120160000Y-97282000D03*
G04 #@! TD*
D10*
G04 #@! TO.C,R1312*
X120904000Y-103650000D03*
X120904000Y-101600000D03*
G04 #@! TD*
D11*
G04 #@! TO.C,R1603*
X118618000Y-106426000D03*
X116568000Y-106426000D03*
G04 #@! TD*
D10*
G04 #@! TO.C,C1301*
X132080000Y-105392000D03*
X132080000Y-107442000D03*
G04 #@! TD*
G04 #@! TO.C,C1304*
X132842000Y-97518000D03*
X132842000Y-99568000D03*
G04 #@! TD*
G04 #@! TO.C,C1405*
X124714000Y-97264000D03*
X124714000Y-99314000D03*
G04 #@! TD*
G04 #@! TO.C,R1403*
X122174000Y-97264000D03*
X122174000Y-99314000D03*
G04 #@! TD*
G04 #@! TO.C,R1003*
X122174000Y-75166000D03*
X122174000Y-77216000D03*
G04 #@! TD*
G04 #@! TO.C,C1005*
X124714000Y-75166000D03*
X124714000Y-77216000D03*
G04 #@! TD*
G04 #@! TO.C,C904*
X132842000Y-75420000D03*
X132842000Y-77470000D03*
G04 #@! TD*
G04 #@! TO.C,C901*
X132080000Y-83294000D03*
X132080000Y-85344000D03*
G04 #@! TD*
G04 #@! TO.C,R912*
X120904000Y-81552000D03*
X120904000Y-79502000D03*
G04 #@! TD*
D11*
G04 #@! TO.C,C1101*
X115588000Y-76200000D03*
X113538000Y-76200000D03*
G04 #@! TD*
G04 #@! TO.C,C1001*
X115080000Y-71628000D03*
X113030000Y-71628000D03*
G04 #@! TD*
G04 #@! TO.C,R1004*
X118110000Y-75184000D03*
X120160000Y-75184000D03*
G04 #@! TD*
D10*
G04 #@! TO.C,R1002*
X118110000Y-72898000D03*
X118110000Y-70848000D03*
G04 #@! TD*
G04 #@! TO.C,R1001*
X120142000Y-70848000D03*
X120142000Y-72898000D03*
G04 #@! TD*
D11*
G04 #@! TO.C,L1001*
X113030000Y-73660000D03*
X115080000Y-73660000D03*
G04 #@! TD*
D14*
G04 #@! TO.C,Q902*
X107501359Y-70818013D03*
X108451359Y-70818013D03*
X109401359Y-70818013D03*
X109401359Y-73438013D03*
X107501359Y-73438013D03*
X108451359Y-73438013D03*
G04 #@! TD*
D11*
G04 #@! TO.C,R1205*
X116568000Y-82042000D03*
X118618000Y-82042000D03*
G04 #@! TD*
D12*
G04 #@! TO.C,Q1202*
X100160000Y-82296000D03*
X97960000Y-81346000D03*
X97960000Y-83246000D03*
G04 #@! TD*
D13*
G04 #@! TO.C,R1204*
X102616000Y-82804000D03*
X108016000Y-82804000D03*
G04 #@! TD*
D11*
G04 #@! TO.C,C1103*
X115334000Y-80264000D03*
X113284000Y-80264000D03*
G04 #@! TD*
G04 #@! TO.C,R1203*
X118618000Y-84328000D03*
X116568000Y-84328000D03*
G04 #@! TD*
D10*
G04 #@! TO.C,R1201*
X110744000Y-80246000D03*
X110744000Y-82296000D03*
G04 #@! TD*
G04 #@! TO.C,C1201*
X114554000Y-84346000D03*
X114554000Y-82296000D03*
G04 #@! TD*
D11*
G04 #@! TO.C,C203*
X148100000Y-152400000D03*
X146050000Y-152400000D03*
G04 #@! TD*
G04 #@! TO.C,C204*
X148100000Y-154940000D03*
X146050000Y-154940000D03*
G04 #@! TD*
G04 #@! TO.C,C207*
X152527000Y-150495000D03*
X154577000Y-150495000D03*
G04 #@! TD*
G04 #@! TO.C,C208*
X149588000Y-161290000D03*
X151638000Y-161290000D03*
G04 #@! TD*
G04 #@! TO.C,C209*
X149588000Y-158750000D03*
X151638000Y-158750000D03*
G04 #@! TD*
G04 #@! TO.C,C210*
X146322000Y-164084000D03*
X144272000Y-164084000D03*
G04 #@! TD*
G04 #@! TO.C,C211*
X161036000Y-155956000D03*
X158986000Y-155956000D03*
G04 #@! TD*
G04 #@! TO.C,C212*
X161054000Y-153416000D03*
X159004000Y-153416000D03*
G04 #@! TD*
G04 #@! TO.C,C213*
X156228000Y-159258000D03*
X154178000Y-159258000D03*
G04 #@! TD*
D10*
G04 #@! TO.C,C301*
X174244000Y-163812000D03*
X174244000Y-165862000D03*
G04 #@! TD*
D11*
G04 #@! TO.C,C302*
X174988000Y-150368000D03*
X177038000Y-150368000D03*
G04 #@! TD*
G04 #@! TO.C,C303*
X173246000Y-150368000D03*
X171196000Y-150368000D03*
G04 #@! TD*
G04 #@! TO.C,C304*
X174262000Y-161290000D03*
X172212000Y-161290000D03*
G04 #@! TD*
G04 #@! TO.C,C402*
X198392000Y-159004000D03*
X196342000Y-159004000D03*
G04 #@! TD*
G04 #@! TO.C,C403*
X191788000Y-167386000D03*
X189738000Y-167386000D03*
G04 #@! TD*
G04 #@! TO.C,C404*
X200678000Y-143764000D03*
X198628000Y-143764000D03*
G04 #@! TD*
G04 #@! TO.C,C406*
X212870000Y-167386000D03*
X210820000Y-167386000D03*
G04 #@! TD*
D10*
G04 #@! TO.C,C407*
X216662000Y-161054000D03*
X216662000Y-159004000D03*
G04 #@! TD*
G04 #@! TO.C,C501*
X132080000Y-61196000D03*
X132080000Y-63246000D03*
G04 #@! TD*
D11*
G04 #@! TO.C,C502*
X141986000Y-64516000D03*
X139936000Y-64516000D03*
G04 #@! TD*
D10*
G04 #@! TO.C,C503*
X141986000Y-51562000D03*
X141986000Y-53612000D03*
G04 #@! TD*
G04 #@! TO.C,C504*
X132842000Y-53322000D03*
X132842000Y-55372000D03*
G04 #@! TD*
D11*
G04 #@! TO.C,C601*
X115080000Y-49530000D03*
X113030000Y-49530000D03*
G04 #@! TD*
D10*
G04 #@! TO.C,C605*
X124714000Y-53068000D03*
X124714000Y-55118000D03*
G04 #@! TD*
D11*
G04 #@! TO.C,C701*
X115588000Y-54102000D03*
X113538000Y-54102000D03*
G04 #@! TD*
G04 #@! TO.C,C703*
X115334000Y-58166000D03*
X113284000Y-58166000D03*
G04 #@! TD*
D10*
G04 #@! TO.C,C801*
X114554000Y-62248000D03*
X114554000Y-60198000D03*
G04 #@! TD*
D15*
G04 #@! TO.C,D401*
X192090000Y-152232000D03*
X191140000Y-154432000D03*
X193040000Y-154432000D03*
G04 #@! TD*
D12*
G04 #@! TO.C,D402*
X215476000Y-154940000D03*
X213276000Y-153990000D03*
X213276000Y-155890000D03*
G04 #@! TD*
G04 #@! TO.C,Q802*
X100160000Y-60198000D03*
X97960000Y-59248000D03*
X97960000Y-61148000D03*
G04 #@! TD*
D10*
G04 #@! TO.C,R203*
X141986000Y-161544000D03*
X141986000Y-159494000D03*
G04 #@! TD*
D11*
G04 #@! TO.C,R204*
X144254000Y-161544000D03*
X146304000Y-161544000D03*
G04 #@! TD*
G04 #@! TO.C,R301*
X174734000Y-154940000D03*
X176784000Y-154940000D03*
G04 #@! TD*
G04 #@! TO.C,R302*
X169146000Y-154940000D03*
X171196000Y-154940000D03*
G04 #@! TD*
G04 #@! TO.C,R303*
X180086000Y-169672000D03*
X178036000Y-169672000D03*
G04 #@! TD*
D16*
G04 #@! TO.C,R402*
X201220000Y-156210000D03*
X198120000Y-156210000D03*
G04 #@! TD*
D11*
G04 #@! TO.C,R506*
X143746000Y-58928000D03*
X145796000Y-58928000D03*
G04 #@! TD*
D10*
G04 #@! TO.C,R512*
X120904000Y-59454000D03*
X120904000Y-57404000D03*
G04 #@! TD*
G04 #@! TO.C,R601*
X120142000Y-48750000D03*
X120142000Y-50800000D03*
G04 #@! TD*
G04 #@! TO.C,R602*
X118110000Y-50800000D03*
X118110000Y-48750000D03*
G04 #@! TD*
G04 #@! TO.C,R603*
X122174000Y-53068000D03*
X122174000Y-55118000D03*
G04 #@! TD*
D11*
G04 #@! TO.C,R604*
X118110000Y-53086000D03*
X120160000Y-53086000D03*
G04 #@! TD*
D10*
G04 #@! TO.C,R801*
X110744000Y-58148000D03*
X110744000Y-60198000D03*
G04 #@! TD*
D11*
G04 #@! TO.C,R803*
X118618000Y-62230000D03*
X116568000Y-62230000D03*
G04 #@! TD*
D13*
G04 #@! TO.C,R804*
X102616000Y-60706000D03*
X108016000Y-60706000D03*
G04 #@! TD*
D11*
G04 #@! TO.C,R805*
X116568000Y-59944000D03*
X118618000Y-59944000D03*
G04 #@! TD*
D14*
G04 #@! TO.C,Q502*
X107501359Y-48720013D03*
X108451359Y-48720013D03*
X109401359Y-48720013D03*
X109401359Y-51340013D03*
X107501359Y-51340013D03*
X108451359Y-51340013D03*
G04 #@! TD*
D11*
G04 #@! TO.C,L601*
X113030000Y-51562000D03*
X115080000Y-51562000D03*
G04 #@! TD*
G04 #@! TO.C,R403*
X184640000Y-167386000D03*
X186690000Y-167386000D03*
G04 #@! TD*
G04 #@! TO.C,R404*
X205722000Y-167386000D03*
X207772000Y-167386000D03*
G04 #@! TD*
D15*
G04 #@! TO.C,Q101*
X166116000Y-137076000D03*
X165166000Y-139276000D03*
X167066000Y-139276000D03*
G04 #@! TD*
D11*
G04 #@! TO.C,R101*
X167132000Y-144272000D03*
X165082000Y-144272000D03*
G04 #@! TD*
G04 #@! TO.C,R104*
X165100000Y-141605000D03*
X167150000Y-141605000D03*
G04 #@! TD*
D10*
G04 #@! TO.C,R105*
X129794000Y-143637000D03*
X129794000Y-141587000D03*
G04 #@! TD*
G04 #@! TO.C,R106*
X125095000Y-143637000D03*
X125095000Y-141587000D03*
G04 #@! TD*
G04 #@! TO.C,R107*
X120396000Y-143655000D03*
X120396000Y-141605000D03*
G04 #@! TD*
D11*
G04 #@! TO.C,R212*
X154584400Y-153009600D03*
X152534400Y-153009600D03*
G04 #@! TD*
M02*
