G04 #@! TF.GenerationSoftware,KiCad,Pcbnew,(5.0.2)-1*
G04 #@! TF.CreationDate,2019-01-18T21:24:51-05:00*
G04 #@! TF.ProjectId,Slave,536c6176-652e-46b6-9963-61645f706362,rev?*
G04 #@! TF.SameCoordinates,Original*
G04 #@! TF.FileFunction,Paste,Top*
G04 #@! TF.FilePolarity,Positive*
%FSLAX46Y46*%
G04 Gerber Fmt 4.6, Leading zero omitted, Abs format (unit mm)*
G04 Created by KiCad (PCBNEW (5.0.2)-1) date 1/18/2019 9:24:51 PM*
%MOMM*%
%LPD*%
G01*
G04 APERTURE LIST*
%ADD10R,3.000000X1.700000*%
%ADD11C,0.300000*%
%ADD12C,0.100000*%
%ADD13R,1.400000X1.500000*%
%ADD14R,1.400000X1.000000*%
%ADD15R,0.620000X1.220000*%
%ADD16R,1.500000X1.400000*%
%ADD17R,1.500000X0.550000*%
%ADD18R,1.000000X1.500000*%
%ADD19R,2.000000X0.750000*%
%ADD20R,1.000000X0.600000*%
%ADD21R,1.000000X1.000000*%
%ADD22R,2.000000X1.300000*%
%ADD23R,1.000000X2.250000*%
%ADD24R,3.500000X2.250000*%
%ADD25R,0.750000X2.000000*%
%ADD26R,2.000000X1.600000*%
%ADD27C,1.700000*%
G04 APERTURE END LIST*
D10*
G04 #@! TO.C,U501*
X142060000Y-50546000D03*
X142060000Y-48006000D03*
X132260000Y-48006000D03*
X132260000Y-50546000D03*
G04 #@! TD*
D11*
G04 #@! TO.C,U201*
X146592420Y-154682280D03*
D12*
G36*
X145956024Y-155106544D02*
X147016684Y-154045884D01*
X147228816Y-154258016D01*
X146168156Y-155318676D01*
X145956024Y-155106544D01*
X145956024Y-155106544D01*
G37*
D11*
X146945973Y-155035833D03*
D12*
G36*
X146309577Y-155460097D02*
X147370237Y-154399437D01*
X147582369Y-154611569D01*
X146521709Y-155672229D01*
X146309577Y-155460097D01*
X146309577Y-155460097D01*
G37*
D11*
X147299526Y-155389386D03*
D12*
G36*
X146663130Y-155813650D02*
X147723790Y-154752990D01*
X147935922Y-154965122D01*
X146875262Y-156025782D01*
X146663130Y-155813650D01*
X146663130Y-155813650D01*
G37*
D11*
X147653080Y-155742940D03*
D12*
G36*
X147016684Y-156167204D02*
X148077344Y-155106544D01*
X148289476Y-155318676D01*
X147228816Y-156379336D01*
X147016684Y-156167204D01*
X147016684Y-156167204D01*
G37*
D11*
X148006633Y-156096493D03*
D12*
G36*
X147370237Y-156520757D02*
X148430897Y-155460097D01*
X148643029Y-155672229D01*
X147582369Y-156732889D01*
X147370237Y-156520757D01*
X147370237Y-156520757D01*
G37*
D11*
X148360187Y-156450047D03*
D12*
G36*
X147723791Y-156874311D02*
X148784451Y-155813651D01*
X148996583Y-156025783D01*
X147935923Y-157086443D01*
X147723791Y-156874311D01*
X147723791Y-156874311D01*
G37*
D11*
X148713740Y-156803600D03*
D12*
G36*
X148077344Y-157227864D02*
X149138004Y-156167204D01*
X149350136Y-156379336D01*
X148289476Y-157439996D01*
X148077344Y-157227864D01*
X148077344Y-157227864D01*
G37*
D11*
X149067293Y-157157153D03*
D12*
G36*
X148430897Y-157581417D02*
X149491557Y-156520757D01*
X149703689Y-156732889D01*
X148643029Y-157793549D01*
X148430897Y-157581417D01*
X148430897Y-157581417D01*
G37*
D11*
X149420847Y-157510707D03*
D12*
G36*
X148784451Y-157934971D02*
X149845111Y-156874311D01*
X150057243Y-157086443D01*
X148996583Y-158147103D01*
X148784451Y-157934971D01*
X148784451Y-157934971D01*
G37*
D11*
X149774400Y-157864260D03*
D12*
G36*
X149138004Y-158288524D02*
X150198664Y-157227864D01*
X150410796Y-157439996D01*
X149350136Y-158500656D01*
X149138004Y-158288524D01*
X149138004Y-158288524D01*
G37*
D11*
X150127953Y-158217813D03*
D12*
G36*
X149491557Y-158642077D02*
X150552217Y-157581417D01*
X150764349Y-157793549D01*
X149703689Y-158854209D01*
X149491557Y-158642077D01*
X149491557Y-158642077D01*
G37*
D11*
X150481507Y-158571367D03*
D12*
G36*
X149845111Y-158995631D02*
X150905771Y-157934971D01*
X151117903Y-158147103D01*
X150057243Y-159207763D01*
X149845111Y-158995631D01*
X149845111Y-158995631D01*
G37*
D11*
X150835060Y-158924920D03*
D12*
G36*
X150198664Y-159349184D02*
X151259324Y-158288524D01*
X151471456Y-158500656D01*
X150410796Y-159561316D01*
X150198664Y-159349184D01*
X150198664Y-159349184D01*
G37*
D11*
X151188614Y-159278474D03*
D12*
G36*
X150552218Y-159702738D02*
X151612878Y-158642078D01*
X151825010Y-158854210D01*
X150764350Y-159914870D01*
X150552218Y-159702738D01*
X150552218Y-159702738D01*
G37*
D11*
X151542167Y-159632027D03*
D12*
G36*
X150905771Y-160056291D02*
X151966431Y-158995631D01*
X152178563Y-159207763D01*
X151117903Y-160268423D01*
X150905771Y-160056291D01*
X150905771Y-160056291D01*
G37*
D11*
X151895720Y-159985580D03*
D12*
G36*
X151259324Y-160409844D02*
X152319984Y-159349184D01*
X152532116Y-159561316D01*
X151471456Y-160621976D01*
X151259324Y-160409844D01*
X151259324Y-160409844D01*
G37*
D11*
X159886027Y-151288167D03*
D12*
G36*
X159249631Y-151712431D02*
X160310291Y-150651771D01*
X160522423Y-150863903D01*
X159461763Y-151924563D01*
X159249631Y-151712431D01*
X159249631Y-151712431D01*
G37*
D11*
X159532474Y-150934614D03*
D12*
G36*
X158896078Y-151358878D02*
X159956738Y-150298218D01*
X160168870Y-150510350D01*
X159108210Y-151571010D01*
X158896078Y-151358878D01*
X158896078Y-151358878D01*
G37*
D11*
X159178920Y-150581060D03*
D12*
G36*
X158542524Y-151005324D02*
X159603184Y-149944664D01*
X159815316Y-150156796D01*
X158754656Y-151217456D01*
X158542524Y-151005324D01*
X158542524Y-151005324D01*
G37*
D11*
X158825367Y-150227507D03*
D12*
G36*
X158188971Y-150651771D02*
X159249631Y-149591111D01*
X159461763Y-149803243D01*
X158401103Y-150863903D01*
X158188971Y-150651771D01*
X158188971Y-150651771D01*
G37*
D11*
X158471813Y-149873953D03*
D12*
G36*
X157835417Y-150298217D02*
X158896077Y-149237557D01*
X159108209Y-149449689D01*
X158047549Y-150510349D01*
X157835417Y-150298217D01*
X157835417Y-150298217D01*
G37*
D11*
X158118260Y-149520400D03*
D12*
G36*
X157481864Y-149944664D02*
X158542524Y-148884004D01*
X158754656Y-149096136D01*
X157693996Y-150156796D01*
X157481864Y-149944664D01*
X157481864Y-149944664D01*
G37*
D11*
X157764707Y-149166847D03*
D12*
G36*
X157128311Y-149591111D02*
X158188971Y-148530451D01*
X158401103Y-148742583D01*
X157340443Y-149803243D01*
X157128311Y-149591111D01*
X157128311Y-149591111D01*
G37*
D11*
X157411153Y-148813293D03*
D12*
G36*
X156774757Y-149237557D02*
X157835417Y-148176897D01*
X158047549Y-148389029D01*
X156986889Y-149449689D01*
X156774757Y-149237557D01*
X156774757Y-149237557D01*
G37*
D11*
X157057600Y-148459740D03*
D12*
G36*
X156421204Y-148884004D02*
X157481864Y-147823344D01*
X157693996Y-148035476D01*
X156633336Y-149096136D01*
X156421204Y-148884004D01*
X156421204Y-148884004D01*
G37*
D11*
X156704047Y-148106187D03*
D12*
G36*
X156067651Y-148530451D02*
X157128311Y-147469791D01*
X157340443Y-147681923D01*
X156279783Y-148742583D01*
X156067651Y-148530451D01*
X156067651Y-148530451D01*
G37*
D11*
X156350493Y-147752633D03*
D12*
G36*
X155714097Y-148176897D02*
X156774757Y-147116237D01*
X156986889Y-147328369D01*
X155926229Y-148389029D01*
X155714097Y-148176897D01*
X155714097Y-148176897D01*
G37*
D11*
X155996940Y-147399080D03*
D12*
G36*
X155360544Y-147823344D02*
X156421204Y-146762684D01*
X156633336Y-146974816D01*
X155572676Y-148035476D01*
X155360544Y-147823344D01*
X155360544Y-147823344D01*
G37*
D11*
X155643386Y-147045526D03*
D12*
G36*
X155006990Y-147469790D02*
X156067650Y-146409130D01*
X156279782Y-146621262D01*
X155219122Y-147681922D01*
X155006990Y-147469790D01*
X155006990Y-147469790D01*
G37*
D11*
X155289833Y-146691973D03*
D12*
G36*
X154653437Y-147116237D02*
X155714097Y-146055577D01*
X155926229Y-146267709D01*
X154865569Y-147328369D01*
X154653437Y-147116237D01*
X154653437Y-147116237D01*
G37*
D11*
X154936280Y-146338420D03*
D12*
G36*
X154299884Y-146762684D02*
X155360544Y-145702024D01*
X155572676Y-145914156D01*
X154512016Y-146974816D01*
X154299884Y-146762684D01*
X154299884Y-146762684D01*
G37*
D11*
X160239580Y-151641720D03*
D12*
G36*
X159603184Y-152065984D02*
X160663844Y-151005324D01*
X160875976Y-151217456D01*
X159815316Y-152278116D01*
X159603184Y-152065984D01*
X159603184Y-152065984D01*
G37*
D11*
X154936280Y-159985580D03*
D12*
G36*
X154299884Y-159561316D02*
X154512016Y-159349184D01*
X155572676Y-160409844D01*
X155360544Y-160621976D01*
X154299884Y-159561316D01*
X154299884Y-159561316D01*
G37*
D11*
X155289833Y-159632027D03*
D12*
G36*
X154653437Y-159207763D02*
X154865569Y-158995631D01*
X155926229Y-160056291D01*
X155714097Y-160268423D01*
X154653437Y-159207763D01*
X154653437Y-159207763D01*
G37*
D11*
X155643386Y-159278474D03*
D12*
G36*
X155006990Y-158854210D02*
X155219122Y-158642078D01*
X156279782Y-159702738D01*
X156067650Y-159914870D01*
X155006990Y-158854210D01*
X155006990Y-158854210D01*
G37*
D11*
X155996940Y-158924920D03*
D12*
G36*
X155360544Y-158500656D02*
X155572676Y-158288524D01*
X156633336Y-159349184D01*
X156421204Y-159561316D01*
X155360544Y-158500656D01*
X155360544Y-158500656D01*
G37*
D11*
X156350493Y-158571367D03*
D12*
G36*
X155714097Y-158147103D02*
X155926229Y-157934971D01*
X156986889Y-158995631D01*
X156774757Y-159207763D01*
X155714097Y-158147103D01*
X155714097Y-158147103D01*
G37*
D11*
X156704047Y-158217813D03*
D12*
G36*
X156067651Y-157793549D02*
X156279783Y-157581417D01*
X157340443Y-158642077D01*
X157128311Y-158854209D01*
X156067651Y-157793549D01*
X156067651Y-157793549D01*
G37*
D11*
X157057600Y-157864260D03*
D12*
G36*
X156421204Y-157439996D02*
X156633336Y-157227864D01*
X157693996Y-158288524D01*
X157481864Y-158500656D01*
X156421204Y-157439996D01*
X156421204Y-157439996D01*
G37*
D11*
X157411153Y-157510707D03*
D12*
G36*
X156774757Y-157086443D02*
X156986889Y-156874311D01*
X158047549Y-157934971D01*
X157835417Y-158147103D01*
X156774757Y-157086443D01*
X156774757Y-157086443D01*
G37*
D11*
X157764707Y-157157153D03*
D12*
G36*
X157128311Y-156732889D02*
X157340443Y-156520757D01*
X158401103Y-157581417D01*
X158188971Y-157793549D01*
X157128311Y-156732889D01*
X157128311Y-156732889D01*
G37*
D11*
X158118260Y-156803600D03*
D12*
G36*
X157481864Y-156379336D02*
X157693996Y-156167204D01*
X158754656Y-157227864D01*
X158542524Y-157439996D01*
X157481864Y-156379336D01*
X157481864Y-156379336D01*
G37*
D11*
X158471813Y-156450047D03*
D12*
G36*
X157835417Y-156025783D02*
X158047549Y-155813651D01*
X159108209Y-156874311D01*
X158896077Y-157086443D01*
X157835417Y-156025783D01*
X157835417Y-156025783D01*
G37*
D11*
X158825367Y-156096493D03*
D12*
G36*
X158188971Y-155672229D02*
X158401103Y-155460097D01*
X159461763Y-156520757D01*
X159249631Y-156732889D01*
X158188971Y-155672229D01*
X158188971Y-155672229D01*
G37*
D11*
X159178920Y-155742940D03*
D12*
G36*
X158542524Y-155318676D02*
X158754656Y-155106544D01*
X159815316Y-156167204D01*
X159603184Y-156379336D01*
X158542524Y-155318676D01*
X158542524Y-155318676D01*
G37*
D11*
X159532474Y-155389386D03*
D12*
G36*
X158896078Y-154965122D02*
X159108210Y-154752990D01*
X160168870Y-155813650D01*
X159956738Y-156025782D01*
X158896078Y-154965122D01*
X158896078Y-154965122D01*
G37*
D11*
X159886027Y-155035833D03*
D12*
G36*
X159249631Y-154611569D02*
X159461763Y-154399437D01*
X160522423Y-155460097D01*
X160310291Y-155672229D01*
X159249631Y-154611569D01*
X159249631Y-154611569D01*
G37*
D11*
X160239580Y-154682280D03*
D12*
G36*
X159603184Y-154258016D02*
X159815316Y-154045884D01*
X160875976Y-155106544D01*
X160663844Y-155318676D01*
X159603184Y-154258016D01*
X159603184Y-154258016D01*
G37*
D11*
X151895720Y-146338420D03*
D12*
G36*
X151259324Y-145914156D02*
X151471456Y-145702024D01*
X152532116Y-146762684D01*
X152319984Y-146974816D01*
X151259324Y-145914156D01*
X151259324Y-145914156D01*
G37*
D11*
X151542167Y-146691973D03*
D12*
G36*
X150905771Y-146267709D02*
X151117903Y-146055577D01*
X152178563Y-147116237D01*
X151966431Y-147328369D01*
X150905771Y-146267709D01*
X150905771Y-146267709D01*
G37*
D11*
X151188614Y-147045526D03*
D12*
G36*
X150552218Y-146621262D02*
X150764350Y-146409130D01*
X151825010Y-147469790D01*
X151612878Y-147681922D01*
X150552218Y-146621262D01*
X150552218Y-146621262D01*
G37*
D11*
X150835060Y-147399080D03*
D12*
G36*
X150198664Y-146974816D02*
X150410796Y-146762684D01*
X151471456Y-147823344D01*
X151259324Y-148035476D01*
X150198664Y-146974816D01*
X150198664Y-146974816D01*
G37*
D11*
X150481507Y-147752633D03*
D12*
G36*
X149845111Y-147328369D02*
X150057243Y-147116237D01*
X151117903Y-148176897D01*
X150905771Y-148389029D01*
X149845111Y-147328369D01*
X149845111Y-147328369D01*
G37*
D11*
X150127953Y-148106187D03*
D12*
G36*
X149491557Y-147681923D02*
X149703689Y-147469791D01*
X150764349Y-148530451D01*
X150552217Y-148742583D01*
X149491557Y-147681923D01*
X149491557Y-147681923D01*
G37*
D11*
X149774400Y-148459740D03*
D12*
G36*
X149138004Y-148035476D02*
X149350136Y-147823344D01*
X150410796Y-148884004D01*
X150198664Y-149096136D01*
X149138004Y-148035476D01*
X149138004Y-148035476D01*
G37*
D11*
X149420847Y-148813293D03*
D12*
G36*
X148784451Y-148389029D02*
X148996583Y-148176897D01*
X150057243Y-149237557D01*
X149845111Y-149449689D01*
X148784451Y-148389029D01*
X148784451Y-148389029D01*
G37*
D11*
X149067293Y-149166847D03*
D12*
G36*
X148430897Y-148742583D02*
X148643029Y-148530451D01*
X149703689Y-149591111D01*
X149491557Y-149803243D01*
X148430897Y-148742583D01*
X148430897Y-148742583D01*
G37*
D11*
X148713740Y-149520400D03*
D12*
G36*
X148077344Y-149096136D02*
X148289476Y-148884004D01*
X149350136Y-149944664D01*
X149138004Y-150156796D01*
X148077344Y-149096136D01*
X148077344Y-149096136D01*
G37*
D11*
X148360187Y-149873953D03*
D12*
G36*
X147723791Y-149449689D02*
X147935923Y-149237557D01*
X148996583Y-150298217D01*
X148784451Y-150510349D01*
X147723791Y-149449689D01*
X147723791Y-149449689D01*
G37*
D11*
X148006633Y-150227507D03*
D12*
G36*
X147370237Y-149803243D02*
X147582369Y-149591111D01*
X148643029Y-150651771D01*
X148430897Y-150863903D01*
X147370237Y-149803243D01*
X147370237Y-149803243D01*
G37*
D11*
X147653080Y-150581060D03*
D12*
G36*
X147016684Y-150156796D02*
X147228816Y-149944664D01*
X148289476Y-151005324D01*
X148077344Y-151217456D01*
X147016684Y-150156796D01*
X147016684Y-150156796D01*
G37*
D11*
X147299526Y-150934614D03*
D12*
G36*
X146663130Y-150510350D02*
X146875262Y-150298218D01*
X147935922Y-151358878D01*
X147723790Y-151571010D01*
X146663130Y-150510350D01*
X146663130Y-150510350D01*
G37*
D11*
X146945973Y-151288167D03*
D12*
G36*
X146309577Y-150863903D02*
X146521709Y-150651771D01*
X147582369Y-151712431D01*
X147370237Y-151924563D01*
X146309577Y-150863903D01*
X146309577Y-150863903D01*
G37*
D11*
X146592420Y-151641720D03*
D12*
G36*
X145956024Y-151217456D02*
X146168156Y-151005324D01*
X147228816Y-152065984D01*
X147016684Y-152278116D01*
X145956024Y-151217456D01*
X145956024Y-151217456D01*
G37*
G04 #@! TD*
D13*
G04 #@! TO.C,R3310*
X155194000Y-55118000D03*
X153144000Y-55118000D03*
G04 #@! TD*
G04 #@! TO.C,R3304*
X163068000Y-51054000D03*
X161018000Y-51054000D03*
G04 #@! TD*
G04 #@! TO.C,R3308*
X163086000Y-53594000D03*
X161036000Y-53594000D03*
G04 #@! TD*
G04 #@! TO.C,R3314*
X161018000Y-58420000D03*
X163068000Y-58420000D03*
G04 #@! TD*
G04 #@! TO.C,R3311*
X163068000Y-56134000D03*
X161018000Y-56134000D03*
G04 #@! TD*
G04 #@! TO.C,R2910*
X155194000Y-76962000D03*
X153144000Y-76962000D03*
G04 #@! TD*
G04 #@! TO.C,R2904*
X163068000Y-73152000D03*
X161018000Y-73152000D03*
G04 #@! TD*
G04 #@! TO.C,R2911*
X163068000Y-78232000D03*
X161018000Y-78232000D03*
G04 #@! TD*
G04 #@! TO.C,R2914*
X161018000Y-80518000D03*
X163068000Y-80518000D03*
G04 #@! TD*
G04 #@! TO.C,R2908*
X163086000Y-75692000D03*
X161036000Y-75692000D03*
G04 #@! TD*
G04 #@! TO.C,R2510*
X155212000Y-99060000D03*
X153162000Y-99060000D03*
G04 #@! TD*
G04 #@! TO.C,R2504*
X163068000Y-95250000D03*
X161018000Y-95250000D03*
G04 #@! TD*
G04 #@! TO.C,R2514*
X161018000Y-102616000D03*
X163068000Y-102616000D03*
G04 #@! TD*
G04 #@! TO.C,R2508*
X163086000Y-97790000D03*
X161036000Y-97790000D03*
G04 #@! TD*
G04 #@! TO.C,R2511*
X163068000Y-100330000D03*
X161018000Y-100330000D03*
G04 #@! TD*
G04 #@! TO.C,R2110*
X155194000Y-121158000D03*
X153144000Y-121158000D03*
G04 #@! TD*
G04 #@! TO.C,R2104*
X163068000Y-117348000D03*
X161018000Y-117348000D03*
G04 #@! TD*
G04 #@! TO.C,R2111*
X163068000Y-122428000D03*
X161018000Y-122428000D03*
G04 #@! TD*
G04 #@! TO.C,R2108*
X163086000Y-119888000D03*
X161036000Y-119888000D03*
G04 #@! TD*
G04 #@! TO.C,R2114*
X161018000Y-124714000D03*
X163068000Y-124714000D03*
G04 #@! TD*
G04 #@! TO.C,R1710*
X151112000Y-123444000D03*
X153162000Y-123444000D03*
G04 #@! TD*
G04 #@! TO.C,R1704*
X143764000Y-126492000D03*
X145814000Y-126492000D03*
G04 #@! TD*
G04 #@! TO.C,R1711*
X143764000Y-121412000D03*
X145814000Y-121412000D03*
G04 #@! TD*
G04 #@! TO.C,R1714*
X145814000Y-119126000D03*
X143764000Y-119126000D03*
G04 #@! TD*
G04 #@! TO.C,R1708*
X143746000Y-123952000D03*
X145796000Y-123952000D03*
G04 #@! TD*
G04 #@! TO.C,R1310*
X151130000Y-101346000D03*
X153180000Y-101346000D03*
G04 #@! TD*
G04 #@! TO.C,R1314*
X145814000Y-97028000D03*
X143764000Y-97028000D03*
G04 #@! TD*
G04 #@! TO.C,R1304*
X143764000Y-104394000D03*
X145814000Y-104394000D03*
G04 #@! TD*
G04 #@! TO.C,R1311*
X143764000Y-99314000D03*
X145814000Y-99314000D03*
G04 #@! TD*
G04 #@! TO.C,R1308*
X143746000Y-101854000D03*
X145796000Y-101854000D03*
G04 #@! TD*
G04 #@! TO.C,R910*
X151130000Y-79248000D03*
X153180000Y-79248000D03*
G04 #@! TD*
G04 #@! TO.C,R904*
X143764000Y-82296000D03*
X145814000Y-82296000D03*
G04 #@! TD*
G04 #@! TO.C,R914*
X145814000Y-74930000D03*
X143764000Y-74930000D03*
G04 #@! TD*
G04 #@! TO.C,R911*
X143764000Y-77216000D03*
X145814000Y-77216000D03*
G04 #@! TD*
G04 #@! TO.C,R908*
X143746000Y-79756000D03*
X145796000Y-79756000D03*
G04 #@! TD*
D14*
G04 #@! TO.C,D3602*
X209380000Y-51054000D03*
X207180000Y-52004000D03*
X207180000Y-50104000D03*
G04 #@! TD*
D15*
G04 #@! TO.C,Q3601*
X196982000Y-53420000D03*
X197932000Y-53420000D03*
X198882000Y-53420000D03*
X198882000Y-50800000D03*
X196982000Y-50800000D03*
X197932000Y-50800000D03*
G04 #@! TD*
D13*
G04 #@! TO.C,R3602*
X200896000Y-53340000D03*
X202946000Y-53340000D03*
G04 #@! TD*
D16*
G04 #@! TO.C,R3501*
X194818000Y-55136000D03*
X194818000Y-53086000D03*
G04 #@! TD*
D13*
G04 #@! TO.C,D3601*
X204978000Y-51054000D03*
X202928000Y-51054000D03*
G04 #@! TD*
G04 #@! TO.C,R3606*
X200134000Y-47752000D03*
X202184000Y-47752000D03*
G04 #@! TD*
D15*
G04 #@! TO.C,Q3301*
X199462641Y-62531987D03*
X200412641Y-62531987D03*
X201362641Y-62531987D03*
X201362641Y-59911987D03*
X199462641Y-59911987D03*
X200412641Y-59911987D03*
G04 #@! TD*
D16*
G04 #@! TO.C,R3302*
X197176641Y-59911987D03*
X197176641Y-61961987D03*
G04 #@! TD*
G04 #@! TO.C,R3301*
X214122000Y-62738000D03*
X214122000Y-60688000D03*
G04 #@! TD*
G04 #@! TO.C,D3301*
X216662000Y-62756000D03*
X216662000Y-60706000D03*
G04 #@! TD*
G04 #@! TO.C,C3403*
X184658000Y-60688000D03*
X184658000Y-62738000D03*
G04 #@! TD*
D17*
G04 #@! TO.C,U3401*
X194136000Y-62164000D03*
X194136000Y-60264000D03*
X191436000Y-60264000D03*
X191436000Y-62164000D03*
X191436000Y-61214000D03*
G04 #@! TD*
D18*
G04 #@! TO.C,D3401*
X189484000Y-62764000D03*
X189484000Y-59664000D03*
G04 #@! TD*
D16*
G04 #@! TO.C,C3402*
X186944000Y-60688000D03*
X186944000Y-62738000D03*
G04 #@! TD*
D18*
G04 #@! TO.C,D3302*
X177292000Y-60426000D03*
X177292000Y-63526000D03*
G04 #@! TD*
D13*
G04 #@! TO.C,R3309*
X180340000Y-52324000D03*
X178290000Y-52324000D03*
G04 #@! TD*
D19*
G04 #@! TO.C,U3302*
X172372000Y-48641000D03*
X172372000Y-49911000D03*
X172372000Y-51181000D03*
X172372000Y-52451000D03*
X172372000Y-53721000D03*
X172372000Y-54991000D03*
X172372000Y-56261000D03*
X172372000Y-57531000D03*
X166972000Y-53721000D03*
X166972000Y-54991000D03*
X166972000Y-56261000D03*
X166972000Y-57531000D03*
X166972000Y-52451000D03*
X166972000Y-51181000D03*
X166972000Y-49911000D03*
X166972000Y-48641000D03*
G04 #@! TD*
D10*
G04 #@! TO.C,U3301*
X164772000Y-60706000D03*
X164772000Y-63246000D03*
X174572000Y-63246000D03*
X174572000Y-60706000D03*
G04 #@! TD*
D13*
G04 #@! TO.C,R3313*
X174988000Y-56642000D03*
X177038000Y-56642000D03*
G04 #@! TD*
D16*
G04 #@! TO.C,R3303*
X161544000Y-60688000D03*
X161544000Y-62738000D03*
G04 #@! TD*
G04 #@! TO.C,C3404*
X187198000Y-58692000D03*
X187198000Y-56642000D03*
G04 #@! TD*
D20*
G04 #@! TO.C,U3601*
X190584000Y-50688000D03*
X190584000Y-49388000D03*
D21*
X188384000Y-50538000D03*
D20*
X188384000Y-49388000D03*
G04 #@! TD*
D13*
G04 #@! TO.C,C3502*
X191244000Y-57150000D03*
X193294000Y-57150000D03*
G04 #@! TD*
D17*
G04 #@! TO.C,U3402*
X184484000Y-58354000D03*
X184484000Y-56454000D03*
X181784000Y-56454000D03*
X181784000Y-58354000D03*
X181784000Y-57404000D03*
G04 #@! TD*
D13*
G04 #@! TO.C,R3305*
X184422000Y-53848000D03*
X182372000Y-53848000D03*
G04 #@! TD*
G04 #@! TO.C,R3307*
X184422000Y-51054000D03*
X182372000Y-51054000D03*
G04 #@! TD*
D17*
G04 #@! TO.C,U3501*
X188388000Y-53152000D03*
X188388000Y-54102000D03*
X188388000Y-55052000D03*
X191088000Y-55052000D03*
X191088000Y-53152000D03*
X191088000Y-54102000D03*
G04 #@! TD*
D13*
G04 #@! TO.C,D3201*
X204978000Y-73152000D03*
X202928000Y-73152000D03*
G04 #@! TD*
G04 #@! TO.C,R3202*
X200896000Y-75438000D03*
X202946000Y-75438000D03*
G04 #@! TD*
D15*
G04 #@! TO.C,Q3201*
X196982000Y-75518000D03*
X197932000Y-75518000D03*
X198882000Y-75518000D03*
X198882000Y-72898000D03*
X196982000Y-72898000D03*
X197932000Y-72898000D03*
G04 #@! TD*
G04 #@! TO.C,Q2901*
X199462641Y-84629987D03*
X200412641Y-84629987D03*
X201362641Y-84629987D03*
X201362641Y-82009987D03*
X199462641Y-82009987D03*
X200412641Y-82009987D03*
G04 #@! TD*
D16*
G04 #@! TO.C,R2902*
X197176641Y-82009987D03*
X197176641Y-84059987D03*
G04 #@! TD*
D13*
G04 #@! TO.C,R2907*
X184422000Y-73152000D03*
X182372000Y-73152000D03*
G04 #@! TD*
G04 #@! TO.C,R2905*
X184422000Y-75946000D03*
X182372000Y-75946000D03*
G04 #@! TD*
D17*
G04 #@! TO.C,U3002*
X184484000Y-80452000D03*
X184484000Y-78552000D03*
X181784000Y-78552000D03*
X181784000Y-80452000D03*
X181784000Y-79502000D03*
G04 #@! TD*
G04 #@! TO.C,U3101*
X188388000Y-75250000D03*
X188388000Y-76200000D03*
X188388000Y-77150000D03*
X191088000Y-77150000D03*
X191088000Y-75250000D03*
X191088000Y-76200000D03*
G04 #@! TD*
D16*
G04 #@! TO.C,R3101*
X194818000Y-77234000D03*
X194818000Y-75184000D03*
G04 #@! TD*
D13*
G04 #@! TO.C,C3102*
X191244000Y-79248000D03*
X193294000Y-79248000D03*
G04 #@! TD*
D20*
G04 #@! TO.C,U3201*
X190584000Y-72786000D03*
X190584000Y-71486000D03*
D21*
X188384000Y-72636000D03*
D20*
X188384000Y-71486000D03*
G04 #@! TD*
D16*
G04 #@! TO.C,C3004*
X187198000Y-80790000D03*
X187198000Y-78740000D03*
G04 #@! TD*
G04 #@! TO.C,C3002*
X186944000Y-82786000D03*
X186944000Y-84836000D03*
G04 #@! TD*
D17*
G04 #@! TO.C,U3001*
X194136000Y-84262000D03*
X194136000Y-82362000D03*
X191436000Y-82362000D03*
X191436000Y-84262000D03*
X191436000Y-83312000D03*
G04 #@! TD*
D16*
G04 #@! TO.C,C3003*
X184658000Y-82786000D03*
X184658000Y-84836000D03*
G04 #@! TD*
D18*
G04 #@! TO.C,D3001*
X189484000Y-84862000D03*
X189484000Y-81762000D03*
G04 #@! TD*
D13*
G04 #@! TO.C,R2913*
X174988000Y-78740000D03*
X177038000Y-78740000D03*
G04 #@! TD*
D10*
G04 #@! TO.C,U2901*
X164772000Y-82804000D03*
X164772000Y-85344000D03*
X174572000Y-85344000D03*
X174572000Y-82804000D03*
G04 #@! TD*
D19*
G04 #@! TO.C,U2902*
X172372000Y-70739000D03*
X172372000Y-72009000D03*
X172372000Y-73279000D03*
X172372000Y-74549000D03*
X172372000Y-75819000D03*
X172372000Y-77089000D03*
X172372000Y-78359000D03*
X172372000Y-79629000D03*
X166972000Y-75819000D03*
X166972000Y-77089000D03*
X166972000Y-78359000D03*
X166972000Y-79629000D03*
X166972000Y-74549000D03*
X166972000Y-73279000D03*
X166972000Y-72009000D03*
X166972000Y-70739000D03*
G04 #@! TD*
D13*
G04 #@! TO.C,R2909*
X180340000Y-74422000D03*
X178290000Y-74422000D03*
G04 #@! TD*
D16*
G04 #@! TO.C,R2903*
X161544000Y-82786000D03*
X161544000Y-84836000D03*
G04 #@! TD*
D18*
G04 #@! TO.C,D2902*
X177292000Y-82524000D03*
X177292000Y-85624000D03*
G04 #@! TD*
D13*
G04 #@! TO.C,R3206*
X200134000Y-69850000D03*
X202184000Y-69850000D03*
G04 #@! TD*
D14*
G04 #@! TO.C,D3202*
X209380000Y-73152000D03*
X207180000Y-74102000D03*
X207180000Y-72202000D03*
G04 #@! TD*
D16*
G04 #@! TO.C,D2901*
X216662000Y-84854000D03*
X216662000Y-82804000D03*
G04 #@! TD*
G04 #@! TO.C,R2901*
X214122000Y-84836000D03*
X214122000Y-82786000D03*
G04 #@! TD*
G04 #@! TO.C,R2502*
X197176641Y-104107987D03*
X197176641Y-106157987D03*
G04 #@! TD*
D15*
G04 #@! TO.C,Q2501*
X199462641Y-106727987D03*
X200412641Y-106727987D03*
X201362641Y-106727987D03*
X201362641Y-104107987D03*
X199462641Y-104107987D03*
X200412641Y-104107987D03*
G04 #@! TD*
D16*
G04 #@! TO.C,R2501*
X214122000Y-106934000D03*
X214122000Y-104884000D03*
G04 #@! TD*
G04 #@! TO.C,D2501*
X216662000Y-106952000D03*
X216662000Y-104902000D03*
G04 #@! TD*
D14*
G04 #@! TO.C,D2802*
X209380000Y-95250000D03*
X207180000Y-96200000D03*
X207180000Y-94300000D03*
G04 #@! TD*
D17*
G04 #@! TO.C,U2601*
X194136000Y-106360000D03*
X194136000Y-104460000D03*
X191436000Y-104460000D03*
X191436000Y-106360000D03*
X191436000Y-105410000D03*
G04 #@! TD*
D16*
G04 #@! TO.C,C2602*
X186944000Y-104884000D03*
X186944000Y-106934000D03*
G04 #@! TD*
G04 #@! TO.C,C2603*
X184658000Y-104884000D03*
X184658000Y-106934000D03*
G04 #@! TD*
D18*
G04 #@! TO.C,D2601*
X189484000Y-106960000D03*
X189484000Y-103860000D03*
G04 #@! TD*
D13*
G04 #@! TO.C,C2702*
X191244000Y-101346000D03*
X193294000Y-101346000D03*
G04 #@! TD*
D16*
G04 #@! TO.C,R2701*
X194818000Y-99332000D03*
X194818000Y-97282000D03*
G04 #@! TD*
D20*
G04 #@! TO.C,U2801*
X190584000Y-94884000D03*
X190584000Y-93584000D03*
D21*
X188384000Y-94734000D03*
D20*
X188384000Y-93584000D03*
G04 #@! TD*
D17*
G04 #@! TO.C,U2701*
X188388000Y-97348000D03*
X188388000Y-98298000D03*
X188388000Y-99248000D03*
X191088000Y-99248000D03*
X191088000Y-97348000D03*
X191088000Y-98298000D03*
G04 #@! TD*
D16*
G04 #@! TO.C,C2604*
X187198000Y-102888000D03*
X187198000Y-100838000D03*
G04 #@! TD*
D18*
G04 #@! TO.C,D2502*
X177292000Y-104622000D03*
X177292000Y-107722000D03*
G04 #@! TD*
D16*
G04 #@! TO.C,R2503*
X161544000Y-104884000D03*
X161544000Y-106934000D03*
G04 #@! TD*
D10*
G04 #@! TO.C,U2501*
X164772000Y-104902000D03*
X164772000Y-107442000D03*
X174572000Y-107442000D03*
X174572000Y-104902000D03*
G04 #@! TD*
D13*
G04 #@! TO.C,R2505*
X184422000Y-98044000D03*
X182372000Y-98044000D03*
G04 #@! TD*
D17*
G04 #@! TO.C,U2602*
X184484000Y-102550000D03*
X184484000Y-100650000D03*
X181784000Y-100650000D03*
X181784000Y-102550000D03*
X181784000Y-101600000D03*
G04 #@! TD*
D13*
G04 #@! TO.C,R2509*
X180340000Y-96520000D03*
X178290000Y-96520000D03*
G04 #@! TD*
D19*
G04 #@! TO.C,U2502*
X172372000Y-92837000D03*
X172372000Y-94107000D03*
X172372000Y-95377000D03*
X172372000Y-96647000D03*
X172372000Y-97917000D03*
X172372000Y-99187000D03*
X172372000Y-100457000D03*
X172372000Y-101727000D03*
X166972000Y-97917000D03*
X166972000Y-99187000D03*
X166972000Y-100457000D03*
X166972000Y-101727000D03*
X166972000Y-96647000D03*
X166972000Y-95377000D03*
X166972000Y-94107000D03*
X166972000Y-92837000D03*
G04 #@! TD*
D13*
G04 #@! TO.C,R2513*
X174988000Y-100838000D03*
X177038000Y-100838000D03*
G04 #@! TD*
G04 #@! TO.C,R2507*
X184422000Y-95250000D03*
X182372000Y-95250000D03*
G04 #@! TD*
G04 #@! TO.C,D2801*
X204978000Y-95250000D03*
X202928000Y-95250000D03*
G04 #@! TD*
D15*
G04 #@! TO.C,Q2801*
X196982000Y-97616000D03*
X197932000Y-97616000D03*
X198882000Y-97616000D03*
X198882000Y-94996000D03*
X196982000Y-94996000D03*
X197932000Y-94996000D03*
G04 #@! TD*
D13*
G04 #@! TO.C,R2802*
X200896000Y-97536000D03*
X202946000Y-97536000D03*
G04 #@! TD*
G04 #@! TO.C,R2806*
X200134000Y-91948000D03*
X202184000Y-91948000D03*
G04 #@! TD*
G04 #@! TO.C,C2302*
X191244000Y-123444000D03*
X193294000Y-123444000D03*
G04 #@! TD*
D17*
G04 #@! TO.C,U2201*
X194136000Y-128458000D03*
X194136000Y-126558000D03*
X191436000Y-126558000D03*
X191436000Y-128458000D03*
X191436000Y-127508000D03*
G04 #@! TD*
D18*
G04 #@! TO.C,D2201*
X189484000Y-129058000D03*
X189484000Y-125958000D03*
G04 #@! TD*
D16*
G04 #@! TO.C,R2301*
X194818000Y-121430000D03*
X194818000Y-119380000D03*
G04 #@! TD*
D20*
G04 #@! TO.C,U2401*
X190584000Y-116982000D03*
X190584000Y-115682000D03*
D21*
X188384000Y-116832000D03*
D20*
X188384000Y-115682000D03*
G04 #@! TD*
D16*
G04 #@! TO.C,R2102*
X197176641Y-126205987D03*
X197176641Y-128255987D03*
G04 #@! TD*
D15*
G04 #@! TO.C,Q2101*
X199462641Y-128825987D03*
X200412641Y-128825987D03*
X201362641Y-128825987D03*
X201362641Y-126205987D03*
X199462641Y-126205987D03*
X200412641Y-126205987D03*
G04 #@! TD*
D16*
G04 #@! TO.C,D2101*
X216662000Y-129050000D03*
X216662000Y-127000000D03*
G04 #@! TD*
G04 #@! TO.C,R2101*
X214122000Y-129050000D03*
X214122000Y-127000000D03*
G04 #@! TD*
D15*
G04 #@! TO.C,Q2401*
X196982000Y-119714000D03*
X197932000Y-119714000D03*
X198882000Y-119714000D03*
X198882000Y-117094000D03*
X196982000Y-117094000D03*
X197932000Y-117094000D03*
G04 #@! TD*
D13*
G04 #@! TO.C,D2401*
X204978000Y-117348000D03*
X202928000Y-117348000D03*
G04 #@! TD*
G04 #@! TO.C,R2402*
X200896000Y-119634000D03*
X202946000Y-119634000D03*
G04 #@! TD*
G04 #@! TO.C,R2406*
X200134000Y-114046000D03*
X202184000Y-114046000D03*
G04 #@! TD*
D14*
G04 #@! TO.C,D2402*
X209380000Y-117348000D03*
X207180000Y-118298000D03*
X207180000Y-116398000D03*
G04 #@! TD*
D17*
G04 #@! TO.C,U2301*
X188388000Y-119446000D03*
X188388000Y-120396000D03*
X188388000Y-121346000D03*
X191088000Y-121346000D03*
X191088000Y-119446000D03*
X191088000Y-120396000D03*
G04 #@! TD*
D16*
G04 #@! TO.C,C2204*
X187198000Y-124986000D03*
X187198000Y-122936000D03*
G04 #@! TD*
G04 #@! TO.C,C2202*
X186944000Y-126982000D03*
X186944000Y-129032000D03*
G04 #@! TD*
D13*
G04 #@! TO.C,R2105*
X184422000Y-120142000D03*
X182372000Y-120142000D03*
G04 #@! TD*
D16*
G04 #@! TO.C,C2203*
X184658000Y-126982000D03*
X184658000Y-129032000D03*
G04 #@! TD*
D18*
G04 #@! TO.C,D2102*
X177292000Y-126720000D03*
X177292000Y-129820000D03*
G04 #@! TD*
D10*
G04 #@! TO.C,U2101*
X164772000Y-127000000D03*
X164772000Y-129540000D03*
X174572000Y-129540000D03*
X174572000Y-127000000D03*
G04 #@! TD*
D16*
G04 #@! TO.C,R2103*
X161544000Y-126982000D03*
X161544000Y-129032000D03*
G04 #@! TD*
D13*
G04 #@! TO.C,R2113*
X174988000Y-122936000D03*
X177038000Y-122936000D03*
G04 #@! TD*
G04 #@! TO.C,R2107*
X184422000Y-117348000D03*
X182372000Y-117348000D03*
G04 #@! TD*
D19*
G04 #@! TO.C,U2102*
X172372000Y-114935000D03*
X172372000Y-116205000D03*
X172372000Y-117475000D03*
X172372000Y-118745000D03*
X172372000Y-120015000D03*
X172372000Y-121285000D03*
X172372000Y-122555000D03*
X172372000Y-123825000D03*
X166972000Y-120015000D03*
X166972000Y-121285000D03*
X166972000Y-122555000D03*
X166972000Y-123825000D03*
X166972000Y-118745000D03*
X166972000Y-117475000D03*
X166972000Y-116205000D03*
X166972000Y-114935000D03*
G04 #@! TD*
D13*
G04 #@! TO.C,R2109*
X180340000Y-118618000D03*
X178290000Y-118618000D03*
G04 #@! TD*
D17*
G04 #@! TO.C,U2202*
X184484000Y-124648000D03*
X184484000Y-122748000D03*
X181784000Y-122748000D03*
X181784000Y-124648000D03*
X181784000Y-123698000D03*
G04 #@! TD*
D16*
G04 #@! TO.C,R1701*
X92710000Y-114790000D03*
X92710000Y-116840000D03*
G04 #@! TD*
G04 #@! TO.C,D1701*
X90170000Y-114790000D03*
X90170000Y-116840000D03*
G04 #@! TD*
D13*
G04 #@! TO.C,R2006*
X106698000Y-129794000D03*
X104648000Y-129794000D03*
G04 #@! TD*
G04 #@! TO.C,R2002*
X105936000Y-124206000D03*
X103886000Y-124206000D03*
G04 #@! TD*
G04 #@! TO.C,D2001*
X101854000Y-126492000D03*
X103904000Y-126492000D03*
G04 #@! TD*
D14*
G04 #@! TO.C,D2002*
X97452000Y-126492000D03*
X99652000Y-125542000D03*
X99652000Y-127442000D03*
G04 #@! TD*
D15*
G04 #@! TO.C,Q2001*
X109850000Y-124126000D03*
X108900000Y-124126000D03*
X107950000Y-124126000D03*
X107950000Y-126746000D03*
X109850000Y-126746000D03*
X108900000Y-126746000D03*
G04 #@! TD*
G04 #@! TO.C,Q1701*
X107369359Y-115014013D03*
X106419359Y-115014013D03*
X105469359Y-115014013D03*
X105469359Y-117634013D03*
X107369359Y-117634013D03*
X106419359Y-117634013D03*
G04 #@! TD*
D17*
G04 #@! TO.C,U1801*
X112696000Y-115382000D03*
X112696000Y-117282000D03*
X115396000Y-117282000D03*
X115396000Y-115382000D03*
X115396000Y-116332000D03*
G04 #@! TD*
D16*
G04 #@! TO.C,R1901*
X112014000Y-122410000D03*
X112014000Y-124460000D03*
G04 #@! TD*
D13*
G04 #@! TO.C,C1902*
X115588000Y-120396000D03*
X113538000Y-120396000D03*
G04 #@! TD*
D16*
G04 #@! TO.C,R1702*
X109655359Y-117634013D03*
X109655359Y-115584013D03*
G04 #@! TD*
D18*
G04 #@! TO.C,D1801*
X117348000Y-114782000D03*
X117348000Y-117882000D03*
G04 #@! TD*
D16*
G04 #@! TO.C,C1804*
X119634000Y-118854000D03*
X119634000Y-120904000D03*
G04 #@! TD*
G04 #@! TO.C,C1802*
X119888000Y-116858000D03*
X119888000Y-114808000D03*
G04 #@! TD*
G04 #@! TO.C,C1803*
X122174000Y-116858000D03*
X122174000Y-114808000D03*
G04 #@! TD*
D20*
G04 #@! TO.C,U2001*
X116248000Y-126858000D03*
X116248000Y-128158000D03*
D21*
X118448000Y-127008000D03*
D20*
X118448000Y-128158000D03*
G04 #@! TD*
D13*
G04 #@! TO.C,R1705*
X122410000Y-123698000D03*
X124460000Y-123698000D03*
G04 #@! TD*
D17*
G04 #@! TO.C,U1802*
X122348000Y-119192000D03*
X122348000Y-121092000D03*
X125048000Y-121092000D03*
X125048000Y-119192000D03*
X125048000Y-120142000D03*
G04 #@! TD*
D13*
G04 #@! TO.C,R1709*
X126492000Y-125222000D03*
X128542000Y-125222000D03*
G04 #@! TD*
G04 #@! TO.C,R1707*
X122410000Y-126492000D03*
X124460000Y-126492000D03*
G04 #@! TD*
D17*
G04 #@! TO.C,U1901*
X118444000Y-124394000D03*
X118444000Y-123444000D03*
X118444000Y-122494000D03*
X115744000Y-122494000D03*
X115744000Y-124394000D03*
X115744000Y-123444000D03*
G04 #@! TD*
D19*
G04 #@! TO.C,U1702*
X134460000Y-128905000D03*
X134460000Y-127635000D03*
X134460000Y-126365000D03*
X134460000Y-125095000D03*
X134460000Y-123825000D03*
X134460000Y-122555000D03*
X134460000Y-121285000D03*
X134460000Y-120015000D03*
X139860000Y-123825000D03*
X139860000Y-122555000D03*
X139860000Y-121285000D03*
X139860000Y-120015000D03*
X139860000Y-125095000D03*
X139860000Y-126365000D03*
X139860000Y-127635000D03*
X139860000Y-128905000D03*
G04 #@! TD*
D10*
G04 #@! TO.C,U1701*
X142060000Y-116840000D03*
X142060000Y-114300000D03*
X132260000Y-114300000D03*
X132260000Y-116840000D03*
G04 #@! TD*
D13*
G04 #@! TO.C,R1713*
X131844000Y-120904000D03*
X129794000Y-120904000D03*
G04 #@! TD*
D18*
G04 #@! TO.C,D1702*
X129540000Y-117120000D03*
X129540000Y-114020000D03*
G04 #@! TD*
D16*
G04 #@! TO.C,R1703*
X145288000Y-116858000D03*
X145288000Y-114808000D03*
G04 #@! TD*
D18*
G04 #@! TO.C,D1302*
X129540000Y-95022000D03*
X129540000Y-91922000D03*
G04 #@! TD*
D13*
G04 #@! TO.C,R1313*
X131844000Y-98806000D03*
X129794000Y-98806000D03*
G04 #@! TD*
D10*
G04 #@! TO.C,U1301*
X142060000Y-94742000D03*
X142060000Y-92202000D03*
X132260000Y-92202000D03*
X132260000Y-94742000D03*
G04 #@! TD*
D19*
G04 #@! TO.C,U1302*
X134460000Y-106807000D03*
X134460000Y-105537000D03*
X134460000Y-104267000D03*
X134460000Y-102997000D03*
X134460000Y-101727000D03*
X134460000Y-100457000D03*
X134460000Y-99187000D03*
X134460000Y-97917000D03*
X139860000Y-101727000D03*
X139860000Y-100457000D03*
X139860000Y-99187000D03*
X139860000Y-97917000D03*
X139860000Y-102997000D03*
X139860000Y-104267000D03*
X139860000Y-105537000D03*
X139860000Y-106807000D03*
G04 #@! TD*
D16*
G04 #@! TO.C,R1303*
X145288000Y-94760000D03*
X145288000Y-92710000D03*
G04 #@! TD*
G04 #@! TO.C,C1403*
X122174000Y-94760000D03*
X122174000Y-92710000D03*
G04 #@! TD*
G04 #@! TO.C,C1402*
X119888000Y-94760000D03*
X119888000Y-92710000D03*
G04 #@! TD*
D18*
G04 #@! TO.C,D1401*
X117348000Y-92684000D03*
X117348000Y-95784000D03*
G04 #@! TD*
D17*
G04 #@! TO.C,U1402*
X122348000Y-97094000D03*
X122348000Y-98994000D03*
X125048000Y-98994000D03*
X125048000Y-97094000D03*
X125048000Y-98044000D03*
G04 #@! TD*
D13*
G04 #@! TO.C,R1309*
X126492000Y-103124000D03*
X128542000Y-103124000D03*
G04 #@! TD*
D16*
G04 #@! TO.C,C1404*
X119634000Y-96756000D03*
X119634000Y-98806000D03*
G04 #@! TD*
D13*
G04 #@! TO.C,R1307*
X122410000Y-104394000D03*
X124460000Y-104394000D03*
G04 #@! TD*
G04 #@! TO.C,R1305*
X122410000Y-101600000D03*
X124460000Y-101600000D03*
G04 #@! TD*
D16*
G04 #@! TO.C,R1302*
X109655359Y-95536013D03*
X109655359Y-93486013D03*
G04 #@! TD*
G04 #@! TO.C,R1501*
X112014000Y-100312000D03*
X112014000Y-102362000D03*
G04 #@! TD*
D17*
G04 #@! TO.C,U1401*
X112696000Y-93284000D03*
X112696000Y-95184000D03*
X115396000Y-95184000D03*
X115396000Y-93284000D03*
X115396000Y-94234000D03*
G04 #@! TD*
G04 #@! TO.C,U1501*
X118444000Y-102296000D03*
X118444000Y-101346000D03*
X118444000Y-100396000D03*
X115744000Y-100396000D03*
X115744000Y-102296000D03*
X115744000Y-101346000D03*
G04 #@! TD*
D20*
G04 #@! TO.C,U1601*
X116248000Y-104760000D03*
X116248000Y-106060000D03*
D21*
X118448000Y-104910000D03*
D20*
X118448000Y-106060000D03*
G04 #@! TD*
D13*
G04 #@! TO.C,C1502*
X115588000Y-98298000D03*
X113538000Y-98298000D03*
G04 #@! TD*
D15*
G04 #@! TO.C,Q1601*
X109850000Y-102028000D03*
X108900000Y-102028000D03*
X107950000Y-102028000D03*
X107950000Y-104648000D03*
X109850000Y-104648000D03*
X108900000Y-104648000D03*
G04 #@! TD*
G04 #@! TO.C,Q1301*
X107369359Y-92916013D03*
X106419359Y-92916013D03*
X105469359Y-92916013D03*
X105469359Y-95536013D03*
X107369359Y-95536013D03*
X106419359Y-95536013D03*
G04 #@! TD*
D16*
G04 #@! TO.C,D1301*
X90170000Y-92692000D03*
X90170000Y-94742000D03*
G04 #@! TD*
D13*
G04 #@! TO.C,D1601*
X101854000Y-104394000D03*
X103904000Y-104394000D03*
G04 #@! TD*
G04 #@! TO.C,R1602*
X105936000Y-102108000D03*
X103886000Y-102108000D03*
G04 #@! TD*
D16*
G04 #@! TO.C,R1301*
X92710000Y-92710000D03*
X92710000Y-94760000D03*
G04 #@! TD*
D14*
G04 #@! TO.C,D1602*
X97452000Y-104394000D03*
X99652000Y-103444000D03*
X99652000Y-105344000D03*
G04 #@! TD*
D13*
G04 #@! TO.C,R1606*
X106698000Y-107696000D03*
X104648000Y-107696000D03*
G04 #@! TD*
G04 #@! TO.C,C1102*
X115588000Y-76200000D03*
X113538000Y-76200000D03*
G04 #@! TD*
D18*
G04 #@! TO.C,D1001*
X117348000Y-70586000D03*
X117348000Y-73686000D03*
G04 #@! TD*
D17*
G04 #@! TO.C,U1101*
X118444000Y-80198000D03*
X118444000Y-79248000D03*
X118444000Y-78298000D03*
X115744000Y-78298000D03*
X115744000Y-80198000D03*
X115744000Y-79248000D03*
G04 #@! TD*
G04 #@! TO.C,U1001*
X112696000Y-71186000D03*
X112696000Y-73086000D03*
X115396000Y-73086000D03*
X115396000Y-71186000D03*
X115396000Y-72136000D03*
G04 #@! TD*
D20*
G04 #@! TO.C,U1201*
X116248000Y-82662000D03*
X116248000Y-83962000D03*
D21*
X118448000Y-82812000D03*
D20*
X118448000Y-83962000D03*
G04 #@! TD*
D16*
G04 #@! TO.C,R1101*
X112014000Y-78214000D03*
X112014000Y-80264000D03*
G04 #@! TD*
D19*
G04 #@! TO.C,U902*
X134460000Y-84709000D03*
X134460000Y-83439000D03*
X134460000Y-82169000D03*
X134460000Y-80899000D03*
X134460000Y-79629000D03*
X134460000Y-78359000D03*
X134460000Y-77089000D03*
X134460000Y-75819000D03*
X139860000Y-79629000D03*
X139860000Y-78359000D03*
X139860000Y-77089000D03*
X139860000Y-75819000D03*
X139860000Y-80899000D03*
X139860000Y-82169000D03*
X139860000Y-83439000D03*
X139860000Y-84709000D03*
G04 #@! TD*
D10*
G04 #@! TO.C,U901*
X142060000Y-72644000D03*
X142060000Y-70104000D03*
X132260000Y-70104000D03*
X132260000Y-72644000D03*
G04 #@! TD*
D13*
G04 #@! TO.C,R913*
X131844000Y-76708000D03*
X129794000Y-76708000D03*
G04 #@! TD*
D16*
G04 #@! TO.C,R903*
X145288000Y-72662000D03*
X145288000Y-70612000D03*
G04 #@! TD*
D18*
G04 #@! TO.C,D902*
X129540000Y-72924000D03*
X129540000Y-69824000D03*
G04 #@! TD*
D13*
G04 #@! TO.C,R1206*
X106698000Y-85598000D03*
X104648000Y-85598000D03*
G04 #@! TD*
D14*
G04 #@! TO.C,D1202*
X97452000Y-82296000D03*
X99652000Y-81346000D03*
X99652000Y-83246000D03*
G04 #@! TD*
D16*
G04 #@! TO.C,R901*
X92710000Y-70612000D03*
X92710000Y-72662000D03*
G04 #@! TD*
G04 #@! TO.C,D901*
X90170000Y-70594000D03*
X90170000Y-72644000D03*
G04 #@! TD*
D13*
G04 #@! TO.C,D1201*
X101854000Y-82296000D03*
X103904000Y-82296000D03*
G04 #@! TD*
D15*
G04 #@! TO.C,Q1201*
X109850000Y-79930000D03*
X108900000Y-79930000D03*
X107950000Y-79930000D03*
X107950000Y-82550000D03*
X109850000Y-82550000D03*
X108900000Y-82550000D03*
G04 #@! TD*
D13*
G04 #@! TO.C,R1202*
X105936000Y-80010000D03*
X103886000Y-80010000D03*
G04 #@! TD*
D16*
G04 #@! TO.C,R902*
X109655359Y-73438013D03*
X109655359Y-71388013D03*
G04 #@! TD*
D15*
G04 #@! TO.C,Q901*
X107369359Y-70818013D03*
X106419359Y-70818013D03*
X105469359Y-70818013D03*
X105469359Y-73438013D03*
X107369359Y-73438013D03*
X106419359Y-73438013D03*
G04 #@! TD*
D16*
G04 #@! TO.C,C1004*
X119634000Y-74658000D03*
X119634000Y-76708000D03*
G04 #@! TD*
D13*
G04 #@! TO.C,R909*
X126492000Y-81026000D03*
X128542000Y-81026000D03*
G04 #@! TD*
G04 #@! TO.C,R907*
X122410000Y-82296000D03*
X124460000Y-82296000D03*
G04 #@! TD*
G04 #@! TO.C,R905*
X122410000Y-79502000D03*
X124460000Y-79502000D03*
G04 #@! TD*
D16*
G04 #@! TO.C,C1002*
X119888000Y-72662000D03*
X119888000Y-70612000D03*
G04 #@! TD*
D17*
G04 #@! TO.C,U1002*
X122348000Y-74996000D03*
X122348000Y-76896000D03*
X125048000Y-76896000D03*
X125048000Y-74996000D03*
X125048000Y-75946000D03*
G04 #@! TD*
D16*
G04 #@! TO.C,C1003*
X122174000Y-72662000D03*
X122174000Y-70612000D03*
G04 #@! TD*
G04 #@! TO.C,C201*
X135128000Y-145016000D03*
X135128000Y-147066000D03*
G04 #@! TD*
G04 #@! TO.C,C202*
X143002000Y-147084000D03*
X143002000Y-145034000D03*
G04 #@! TD*
G04 #@! TO.C,C205*
X130251200Y-162128200D03*
X130251200Y-160078200D03*
G04 #@! TD*
G04 #@! TO.C,C206*
X130276600Y-156438600D03*
X130276600Y-154388600D03*
G04 #@! TD*
D13*
G04 #@! TO.C,C214*
X105174000Y-159004000D03*
X103124000Y-159004000D03*
G04 #@! TD*
D16*
G04 #@! TO.C,C215*
X156464000Y-166134000D03*
X156464000Y-164084000D03*
G04 #@! TD*
D13*
G04 #@! TO.C,C401*
X200678000Y-143764000D03*
X198628000Y-143764000D03*
G04 #@! TD*
D16*
G04 #@! TO.C,C405*
X207264000Y-144508000D03*
X207264000Y-146558000D03*
G04 #@! TD*
G04 #@! TO.C,C602*
X119888000Y-50564000D03*
X119888000Y-48514000D03*
G04 #@! TD*
G04 #@! TO.C,C603*
X122174000Y-50564000D03*
X122174000Y-48514000D03*
G04 #@! TD*
G04 #@! TO.C,C604*
X119634000Y-52560000D03*
X119634000Y-54610000D03*
G04 #@! TD*
D13*
G04 #@! TO.C,C702*
X115588000Y-54102000D03*
X113538000Y-54102000D03*
G04 #@! TD*
D16*
G04 #@! TO.C,D201*
X111506000Y-158659286D03*
X111506000Y-160709286D03*
G04 #@! TD*
G04 #@! TO.C,D202*
X115951000Y-158659286D03*
X115951000Y-160709286D03*
G04 #@! TD*
G04 #@! TO.C,D203*
X120396000Y-158750000D03*
X120396000Y-160800000D03*
G04 #@! TD*
D13*
G04 #@! TO.C,D301*
X176784000Y-154940000D03*
X174734000Y-154940000D03*
G04 #@! TD*
G04 #@! TO.C,D302*
X171196000Y-154940000D03*
X169146000Y-154940000D03*
G04 #@! TD*
G04 #@! TO.C,D303*
X178036000Y-169672000D03*
X180086000Y-169672000D03*
G04 #@! TD*
D16*
G04 #@! TO.C,D501*
X90170000Y-48496000D03*
X90170000Y-50546000D03*
G04 #@! TD*
D18*
G04 #@! TO.C,D502*
X129540000Y-50826000D03*
X129540000Y-47726000D03*
G04 #@! TD*
G04 #@! TO.C,D601*
X117348000Y-48488000D03*
X117348000Y-51588000D03*
G04 #@! TD*
D14*
G04 #@! TO.C,D802*
X97452000Y-60198000D03*
X99652000Y-59248000D03*
X99652000Y-61148000D03*
G04 #@! TD*
D13*
G04 #@! TO.C,R201*
X139464000Y-149860000D03*
X137414000Y-149860000D03*
G04 #@! TD*
D16*
G04 #@! TO.C,R202*
X138861800Y-158394400D03*
X138861800Y-160444400D03*
G04 #@! TD*
G04 #@! TO.C,R205*
X103124000Y-164338000D03*
X103124000Y-166388000D03*
G04 #@! TD*
D13*
G04 #@! TO.C,R206*
X103106000Y-161798000D03*
X105156000Y-161798000D03*
G04 #@! TD*
D16*
G04 #@! TO.C,R207*
X153924000Y-166134000D03*
X153924000Y-164084000D03*
G04 #@! TD*
G04 #@! TO.C,R208*
X111506000Y-154160000D03*
X111506000Y-156210000D03*
G04 #@! TD*
G04 #@! TO.C,R209*
X115951000Y-154160000D03*
X115951000Y-156210000D03*
G04 #@! TD*
G04 #@! TO.C,R210*
X120396000Y-154160000D03*
X120396000Y-156210000D03*
G04 #@! TD*
G04 #@! TO.C,R211*
X150622000Y-166134000D03*
X150622000Y-164084000D03*
G04 #@! TD*
G04 #@! TO.C,R401*
X204724000Y-144508000D03*
X204724000Y-146558000D03*
G04 #@! TD*
G04 #@! TO.C,R501*
X92710000Y-48514000D03*
X92710000Y-50564000D03*
G04 #@! TD*
G04 #@! TO.C,R502*
X109655359Y-51340013D03*
X109655359Y-49290013D03*
G04 #@! TD*
G04 #@! TO.C,R503*
X145288000Y-50564000D03*
X145288000Y-48514000D03*
G04 #@! TD*
D13*
G04 #@! TO.C,R505*
X122410000Y-57404000D03*
X124460000Y-57404000D03*
G04 #@! TD*
G04 #@! TO.C,R507*
X122410000Y-60198000D03*
X124460000Y-60198000D03*
G04 #@! TD*
G04 #@! TO.C,R508*
X143746000Y-57658000D03*
X145796000Y-57658000D03*
G04 #@! TD*
G04 #@! TO.C,R509*
X126492000Y-58928000D03*
X128542000Y-58928000D03*
G04 #@! TD*
G04 #@! TO.C,R510*
X151112000Y-57404000D03*
X153162000Y-57404000D03*
G04 #@! TD*
G04 #@! TO.C,R511*
X143764000Y-55118000D03*
X145814000Y-55118000D03*
G04 #@! TD*
G04 #@! TO.C,R513*
X131844000Y-54610000D03*
X129794000Y-54610000D03*
G04 #@! TD*
G04 #@! TO.C,R514*
X145814000Y-52832000D03*
X143764000Y-52832000D03*
G04 #@! TD*
D16*
G04 #@! TO.C,R701*
X112014000Y-56116000D03*
X112014000Y-58166000D03*
G04 #@! TD*
D13*
G04 #@! TO.C,R802*
X105936000Y-57912000D03*
X103886000Y-57912000D03*
G04 #@! TD*
G04 #@! TO.C,R806*
X106698000Y-63500000D03*
X104648000Y-63500000D03*
G04 #@! TD*
D22*
G04 #@! TO.C,SW201*
X100330000Y-151638000D03*
X100330000Y-147138000D03*
X92330000Y-147138000D03*
X92330000Y-151638000D03*
G04 #@! TD*
G04 #@! TO.C,SW202*
X92330000Y-159766000D03*
X92330000Y-164266000D03*
X100330000Y-164266000D03*
X100330000Y-159766000D03*
G04 #@! TD*
D23*
G04 #@! TO.C,U302*
X171958000Y-161290000D03*
X174258000Y-161290000D03*
D24*
X174258000Y-167090000D03*
D23*
X176558000Y-161290000D03*
G04 #@! TD*
D25*
G04 #@! TO.C,U401*
X197739000Y-152052000D03*
X199009000Y-152052000D03*
X200279000Y-152052000D03*
X201549000Y-152052000D03*
X197739000Y-146652000D03*
X199009000Y-146652000D03*
X200279000Y-146652000D03*
X201549000Y-146652000D03*
G04 #@! TD*
D19*
G04 #@! TO.C,U502*
X134460000Y-62611000D03*
X134460000Y-61341000D03*
X134460000Y-60071000D03*
X134460000Y-58801000D03*
X134460000Y-57531000D03*
X134460000Y-56261000D03*
X134460000Y-54991000D03*
X134460000Y-53721000D03*
X139860000Y-57531000D03*
X139860000Y-56261000D03*
X139860000Y-54991000D03*
X139860000Y-53721000D03*
X139860000Y-58801000D03*
X139860000Y-60071000D03*
X139860000Y-61341000D03*
X139860000Y-62611000D03*
G04 #@! TD*
D20*
G04 #@! TO.C,U801*
X116248000Y-60564000D03*
X116248000Y-61864000D03*
D21*
X118448000Y-60714000D03*
D20*
X118448000Y-61864000D03*
G04 #@! TD*
D26*
G04 #@! TO.C,XTAL201*
X140716000Y-147128000D03*
X140716000Y-141478000D03*
X137416000Y-141478000D03*
X137416000Y-147128000D03*
G04 #@! TD*
D15*
G04 #@! TO.C,Q801*
X109850000Y-57832000D03*
X108900000Y-57832000D03*
X107950000Y-57832000D03*
X107950000Y-60452000D03*
X109850000Y-60452000D03*
X108900000Y-60452000D03*
G04 #@! TD*
G04 #@! TO.C,Q501*
X107369359Y-48720013D03*
X106419359Y-48720013D03*
X105469359Y-48720013D03*
X105469359Y-51340013D03*
X107369359Y-51340013D03*
X106419359Y-51340013D03*
G04 #@! TD*
D17*
G04 #@! TO.C,U602*
X122348000Y-52898000D03*
X122348000Y-54798000D03*
X125048000Y-54798000D03*
X125048000Y-52898000D03*
X125048000Y-53848000D03*
G04 #@! TD*
G04 #@! TO.C,U601*
X112696000Y-49088000D03*
X112696000Y-50988000D03*
X115396000Y-50988000D03*
X115396000Y-49088000D03*
X115396000Y-50038000D03*
G04 #@! TD*
G04 #@! TO.C,U701*
X118444000Y-58100000D03*
X118444000Y-57150000D03*
X118444000Y-56200000D03*
X115744000Y-56200000D03*
X115744000Y-58100000D03*
X115744000Y-57150000D03*
G04 #@! TD*
D13*
G04 #@! TO.C,D801*
X101854000Y-60198000D03*
X103904000Y-60198000D03*
G04 #@! TD*
G04 #@! TO.C,R504*
X143764000Y-60198000D03*
X145814000Y-60198000D03*
G04 #@! TD*
G04 #@! TO.C,R405*
X193784000Y-146558000D03*
X195834000Y-146558000D03*
G04 #@! TD*
G04 #@! TO.C,R102*
X110744000Y-138684000D03*
X112794000Y-138684000D03*
G04 #@! TD*
G04 #@! TO.C,R103*
X195852000Y-138684000D03*
X193802000Y-138684000D03*
G04 #@! TD*
G04 #@! TO.C,C101*
X108694000Y-141986000D03*
X110744000Y-141986000D03*
G04 #@! TD*
G04 #@! TO.C,C102*
X201186000Y-135890000D03*
X199136000Y-135890000D03*
G04 #@! TD*
D16*
G04 #@! TO.C,D101*
X129794000Y-139446000D03*
X129794000Y-137396000D03*
G04 #@! TD*
G04 #@! TO.C,D102*
X125095000Y-139319000D03*
X125095000Y-137269000D03*
G04 #@! TD*
G04 #@! TO.C,D103*
X120396000Y-139319000D03*
X120396000Y-137269000D03*
G04 #@! TD*
D12*
G04 #@! TO.C,XTAL202*
G36*
X133785657Y-159269446D02*
X133826913Y-159275566D01*
X133867371Y-159285700D01*
X133906640Y-159299751D01*
X133944344Y-159317583D01*
X133980117Y-159339025D01*
X134013617Y-159363871D01*
X134044520Y-159391880D01*
X134072529Y-159422783D01*
X134097375Y-159456283D01*
X134118817Y-159492056D01*
X134136649Y-159529760D01*
X134150700Y-159569029D01*
X134160834Y-159609487D01*
X134166954Y-159650743D01*
X134169000Y-159692400D01*
X134169000Y-160542400D01*
X134166954Y-160584057D01*
X134160834Y-160625313D01*
X134150700Y-160665771D01*
X134136649Y-160705040D01*
X134118817Y-160742744D01*
X134097375Y-160778517D01*
X134072529Y-160812017D01*
X134044520Y-160842920D01*
X134013617Y-160870929D01*
X133980117Y-160895775D01*
X133944344Y-160917217D01*
X133906640Y-160935049D01*
X133867371Y-160949100D01*
X133826913Y-160959234D01*
X133785657Y-160965354D01*
X133744000Y-160967400D01*
X132194000Y-160967400D01*
X132152343Y-160965354D01*
X132111087Y-160959234D01*
X132070629Y-160949100D01*
X132031360Y-160935049D01*
X131993656Y-160917217D01*
X131957883Y-160895775D01*
X131924383Y-160870929D01*
X131893480Y-160842920D01*
X131865471Y-160812017D01*
X131840625Y-160778517D01*
X131819183Y-160742744D01*
X131801351Y-160705040D01*
X131787300Y-160665771D01*
X131777166Y-160625313D01*
X131771046Y-160584057D01*
X131769000Y-160542400D01*
X131769000Y-159692400D01*
X131771046Y-159650743D01*
X131777166Y-159609487D01*
X131787300Y-159569029D01*
X131801351Y-159529760D01*
X131819183Y-159492056D01*
X131840625Y-159456283D01*
X131865471Y-159422783D01*
X131893480Y-159391880D01*
X131924383Y-159363871D01*
X131957883Y-159339025D01*
X131993656Y-159317583D01*
X132031360Y-159299751D01*
X132070629Y-159285700D01*
X132111087Y-159275566D01*
X132152343Y-159269446D01*
X132194000Y-159267400D01*
X133744000Y-159267400D01*
X133785657Y-159269446D01*
X133785657Y-159269446D01*
G37*
D27*
X132969000Y-160117400D03*
D12*
G36*
X133785657Y-155569446D02*
X133826913Y-155575566D01*
X133867371Y-155585700D01*
X133906640Y-155599751D01*
X133944344Y-155617583D01*
X133980117Y-155639025D01*
X134013617Y-155663871D01*
X134044520Y-155691880D01*
X134072529Y-155722783D01*
X134097375Y-155756283D01*
X134118817Y-155792056D01*
X134136649Y-155829760D01*
X134150700Y-155869029D01*
X134160834Y-155909487D01*
X134166954Y-155950743D01*
X134169000Y-155992400D01*
X134169000Y-156842400D01*
X134166954Y-156884057D01*
X134160834Y-156925313D01*
X134150700Y-156965771D01*
X134136649Y-157005040D01*
X134118817Y-157042744D01*
X134097375Y-157078517D01*
X134072529Y-157112017D01*
X134044520Y-157142920D01*
X134013617Y-157170929D01*
X133980117Y-157195775D01*
X133944344Y-157217217D01*
X133906640Y-157235049D01*
X133867371Y-157249100D01*
X133826913Y-157259234D01*
X133785657Y-157265354D01*
X133744000Y-157267400D01*
X132194000Y-157267400D01*
X132152343Y-157265354D01*
X132111087Y-157259234D01*
X132070629Y-157249100D01*
X132031360Y-157235049D01*
X131993656Y-157217217D01*
X131957883Y-157195775D01*
X131924383Y-157170929D01*
X131893480Y-157142920D01*
X131865471Y-157112017D01*
X131840625Y-157078517D01*
X131819183Y-157042744D01*
X131801351Y-157005040D01*
X131787300Y-156965771D01*
X131777166Y-156925313D01*
X131771046Y-156884057D01*
X131769000Y-156842400D01*
X131769000Y-155992400D01*
X131771046Y-155950743D01*
X131777166Y-155909487D01*
X131787300Y-155869029D01*
X131801351Y-155829760D01*
X131819183Y-155792056D01*
X131840625Y-155756283D01*
X131865471Y-155722783D01*
X131893480Y-155691880D01*
X131924383Y-155663871D01*
X131957883Y-155639025D01*
X131993656Y-155617583D01*
X132031360Y-155599751D01*
X132070629Y-155585700D01*
X132111087Y-155575566D01*
X132152343Y-155569446D01*
X132194000Y-155567400D01*
X133744000Y-155567400D01*
X133785657Y-155569446D01*
X133785657Y-155569446D01*
G37*
D27*
X132969000Y-156417400D03*
G04 #@! TD*
M02*
